<?xml version="1.0" standalone="no"?>
<!DOCTYPE svg PUBLIC "-//W3C//DTD SVG 1.1//EN" "http://www.w3.org/Graphics/SVG/1.1/DTD/svg11.dtd" >
<svg xmlns="http://www.w3.org/2000/svg">
<defs>
  <font id="navigation" horiz-adv-x="1445.6470588235293">
    <font-face font-family="navigation"
      units-per-em="1024" ascent="1024"
      descent="0" />
    <missing-glyph horiz-adv-x="0" />
    <glyph glyph-name="back-o"
      unicode="&#xEA01;"
      horiz-adv-x="1024" d="M192 522.656L480 234.656L522.656 288L320 490.6559999999999H832V554.656H320L522.656 757.3119999999999L479.9999999999999 810.656z" />
    <glyph glyph-name="bookmarks-o"
      unicode="&#xEA02;"
      horiz-adv-x="1024" d="M170.6666666666667 638.2018688L170.6666666666667 638.2018688C170.6666666666667 594.3363392000001 185.4365047466667 547.3805141333333 226.4156352 507.9306965333334L556.0299925333334 195.8041344000001L467.8095317333333 195.6044650666667L794.3454528 507.6312917333333C839.1173077333333 550.6072106666667 853.4732288 587.1278848000001 853.3322624 638.0246101333333C853.2052608 683.8791402666667 830.7094143999999 739.1014741333333 798.1087445333333 765.8064277333333C755.8337408 800.4361472 729.5901141333334 810.6666666666667 686.7885290666666 810.6666666666667C641.1757674666667 810.6666666666667 598.9318592 792.4336021333334 557.8660309333333 750.2821589333333L513.3105834666667 704.5488448L467.4723093333333 748.9963008C421.5549397333333 793.5204501333334 382.9412117333333 810.6666666666667 338.5004757333333 810.6666666666667C293.4505237333333 810.6666666666667 261.01616 798.7230869333333 224.3054784 766.9343061333334C194.1632802133333 740.8333525333334 170.6666666666667 680.6229888 170.6666666666667 638.2018688L170.6666666666667 638.2018688zM106.6666666666667 638.2018688C106.6666666666667 689.5705962666667 132.1160657066667 771.7649088000001 182.4103569066667 815.3161079466666C232.7046485333333 858.8673070933334 280.6940352 874.6666666666667 338.5004757333333 874.6666666666667C397.3780629333333 874.6666666666667 452.1195456 853.0303586133334 512.0247231999999 794.9428181333334C568.6162133333332 853.0303588266667 628.6922069333333 874.6666666666667 686.7885290666666 874.6666666666667C744.8848533333332 874.6666666666667 785.2383594666667 859.0805454933334 838.6647743999999 815.3161079466666C892.0911914666667 771.5516693333334 917.1775466666666 693.9737493333333 917.3320170666666 638.2018688C917.4876565333334 582.0076693333333 903.9126634666666 524.090496 838.6647743999999 461.4598954666667L512.0247125333333 149.3333333333334L182.4103569066667 461.4598954666667C112.13551232 529.1070165333333 106.6666666666667 610.5534976 106.6666666666667 638.2018688L106.6666666666667 638.2018688z" />
    <glyph glyph-name="bookmarks"
      unicode="&#xEA03;"
      horiz-adv-x="1024" d="M512 72.704Q497.664 72.704 486.4 82.944L130.048 427.0080000000001L114.688 442.3680000000001Q104.448 452.6080000000001 82.944 479.2320000000001T44.032 535.5520000000001T13.312 604.1600000000001T0 683.008Q0 808.96 72.704 879.6160000000001T273.408 951.296Q308.2240000000001 951.296 345.088 939.0080000000002T413.6960000000001 905.2160000000002T468.992 866.3040000000001T512 827.392Q532.48 847.8720000000001 555.008 866.3040000000001T610.3040000000001 905.2160000000002T678.912 939.0080000000002T750.5920000000001 951.2960000000002Q878.5920000000001 951.2960000000002 951.296 879.6160000000001T1024 682.4960000000001T892.928 425.9840000000002L537.6 82.9440000000002Q527.36 72.7040000000002 512 72.7040000000002z" />
    <glyph glyph-name="chevron-right-o"
      unicode="&#xEA04;"
      horiz-adv-x="1024" d="M377.856 719.8720000000001L625.664 472.0640000000001L665.6 512L646.144 532.48L398.336 780.288L358.4000000000001 739.3280000000001L377.8560000000001 719.8720000000001zM418.816 264.192L646.144 491.52L665.6 512L625.664 551.9359999999999L358.4 284.6720000000001L398.336 244.736L418.816 264.192z" />
    <glyph glyph-name="chevron-right"
      unicode="&#xEA05;"
      horiz-adv-x="1024" d="M632.832 523.264L208.896 98.3040000000001Q197.632 88.0640000000001 183.296 88.0640000000001T156.672 98.3040000000001L62.464 193.5360000000001Q51.2 204.8000000000001 51.2 219.1360000000001T62.464 244.7360000000001L365.568 548.864L62.464 851.9680000000001Q51.2 863.2320000000001 51.2 877.5680000000001T62.464 903.1680000000002L156.672 998.4Q167.936 1008.6400000000002 183.296 1008.6400000000002T208.896 998.4L632.832 574.464Q643.072 563.2 643.072 548.864T632.832 523.264z" />
    <glyph glyph-name="chevron-up-o"
      unicode="&#xEA06;"
      horiz-adv-x="1024" d="M491.52 606.2080000000001L739.328 358.4000000000001L780.288 398.3360000000002L532.48 646.1440000000001L512 665.6000000000001L472.064 625.6640000000002L491.52 606.2080000000001zM304.128 377.856L551.9359999999999 625.664L511.9999999999999 665.5999999999999L491.5199999999999 646.144L264.1919999999999 418.8159999999999L244.7359999999999 398.3359999999999L284.6719999999999 358.3999999999999L304.128 377.8559999999999z" />
    <glyph glyph-name="chevron-up"
      unicode="&#xEA07;"
      horiz-adv-x="1024" d="M961.536 263.168L867.328 168.96Q856.064 158.72 840.704 158.72T815.1039999999999 168.96L511.9999999999999 473.088L208.896 168.96Q197.632 158.72 183.296 158.72T156.672 168.96L62.464 263.168Q51.2 274.432 51.2 289.7920000000001T62.464 315.3920000000001L486.4 739.328Q497.664 749.568 512 749.568T537.6 739.328L961.536 315.3920000000001Q972.8 304.1280000000001 972.8 289.7920000000001T961.536 263.168z" />
    <glyph glyph-name="close"
      unicode="&#xEA08;"
      horiz-adv-x="704" d="M15.36 268.288Q15.36 290.8160000000001 31.744 307.2000000000001L199.68 475.1360000000001L31.744 643.0720000000001Q15.36 659.4560000000001 15.36 681.9840000000002T31.744 720.8960000000001L109.568 798.72Q125.952 815.104 147.456 815.104Q169.984 815.104 186.368 798.72L354.304 630.7840000000001L523.264 798.7200000000001Q539.648 815.104 561.152 815.104Q583.6800000000001 815.104 600.0640000000001 798.72L677.888 720.8960000000001Q694.272 704.5120000000001 694.272 681.9840000000002T677.888 643.0720000000001L509.952 475.1360000000001L677.888 307.2000000000001Q694.272 290.8160000000001 694.272 268.288T677.888 229.376L600.0640000000001 151.552Q584.7040000000001 136.192 561.152 136.192Q538.624 136.192 523.264 151.552L354.304 319.4880000000001L186.368 151.552Q171.008 136.192 147.456 136.192Q124.928 136.192 109.568 151.552L31.744 229.376Q15.36 245.76 15.36 268.288z" />
    <glyph glyph-name="facebook"
      unicode="&#xEA09;"
      horiz-adv-x="1024" d="M877.568 237.568Q877.568 169.9839999999999 829.4399999999999 121.856T712.704 72.704H603.136V420.8640000000001H719.872L736.256 548.864H603.136V630.7840000000001Q603.136 661.504 619.52 677.888T673.792 694.272L749.568 695.296V813.056Q695.2959999999999 818.176 647.168 818.176Q569.344 818.176 522.24 772.096T475.136 643.0720000000001V548.864H347.136V420.8640000000001H475.136V72.704H164.864Q96.256 72.704 48.128 121.856T0 237.568V786.432Q0 854.0160000000001 48.128 902.144T164.864 951.296H712.7040000000001Q781.3120000000001 951.296 829.44 902.144T877.5680000000001 786.432V237.568z" />
    <glyph glyph-name="gplus"
      unicode="&#xEA0A;"
      horiz-adv-x="1024" d="M474.112 327.68Q474.112 284.6719999999999 440.3200000000001 264.192T360.4480000000001 242.688Q336.896 242.688 314.3680000000001 248.832T271.3600000000001 264.192T238.5920000000001 294.9120000000001T225.2800000000001 339.9680000000001Q225.2800000000001 365.5680000000001 239.6160000000001 385.0240000000001T277.5040000000001 414.7200000000002T324.6080000000001 429.0560000000002T372.7360000000001 433.1520000000002Q384.0000000000001 433.1520000000002 390.1440000000001 432.1280000000002L403.4560000000001 422.9120000000002Q415.7440000000001 414.7200000000002 418.8160000000001 411.6480000000002T431.1040000000001 401.4080000000002T445.4400000000001 389.1200000000001T456.7040000000001 375.8080000000001T465.9200000000001 361.4720000000001T471.0400000000001 346.1120000000001T474.1120000000001 327.6800000000001zM431.104 638.976Q431.104 605.184 412.672 582.656T360.448 560.1279999999999Q329.728 560.1279999999999 307.2 584.704T274.432 638.976T264.192 700.4159999999999Q264.192 735.232 282.624 759.808T334.848 784.384Q365.568 784.384 388.096 758.784T421.8880000000001 700.4159999999999T431.1040000000001 638.976zM491.52 786.432L542.72 823.296H391.168Q342.016 823.296 299.0080000000001 804.864T226.3040000000001 748.544T196.608 661.5039999999999Q196.608 608.256 233.4720000000001 572.4159999999999T323.5840000000001 537.5999999999999Q336.8960000000001 537.5999999999999 348.1600000000001 539.6479999999999Q340.9920000000001 523.2639999999999 340.9920000000001 508.9279999999999Q340.9920000000001 483.3279999999999 363.5200000000001 454.6559999999998Q264.1920000000001 448.5119999999999 217.0880000000001 418.8159999999998Q190.4640000000001 402.4319999999998 174.0800000000001 376.8319999999998T157.6960000000001 322.5599999999997Q157.6960000000001 297.9839999999997 167.9360000000001 278.5279999999997T195.5840000000001 246.7839999999997T235.5200000000001 225.2799999999997T279.5520000000001 212.9919999999996T323.5840000000001 209.9199999999996Q357.3760000000001 209.9199999999996 392.1920000000001 218.1119999999996T456.7040000000001 244.7359999999997T505.8560000000001 291.8399999999997T525.312 358.3999999999997Q525.312 387.0719999999997 514.048 409.5999999999997T485.376 448.5119999999997T452.6079999999999 475.1359999999997T424.9599999999999 500.7359999999998T412.6719999999999 525.3119999999998T421.8879999999999 549.8879999999998T443.392 572.4159999999998T468.992 596.9919999999998T490.496 630.7839999999999T498.688 677.8879999999999Q498.688 711.6799999999998 486.4 734.2079999999999T444.416 786.4319999999998H491.52zM658.432 530.432H731.136V566.272H658.432V640H621.568V566.272H548.864V530.432H621.568V438.2720000000001H658.432V530.432zM877.568 786.432V237.568Q877.568 169.9839999999999 829.4399999999999 121.856T712.704 72.704H164.8639999999999Q96.2559999999999 72.704 48.1279999999999 121.856T-1e-13 237.568V786.432Q-1e-13 854.0160000000001 48.1279999999999 902.144T164.8639999999999 951.296H712.704Q781.3119999999999 951.296 829.4399999999999 902.144T877.568 786.432z" />
    <glyph glyph-name="help-o"
      unicode="&#xEA0B;"
      horiz-adv-x="1024" d="M753.1426623999998 753.1426621866667L753.1426623999998 753.1426621866667L753.1426623999998 753.1426621866667C685.8392234666667 820.4461009066667 606.6467669333333 853.3333333333334 512 853.3333333333334C417.3532330666667 853.3333333333334 338.1607765333333 820.4461009066667 270.8573378133333 753.1426621866667C203.5538990933333 685.8392234666667 170.6666666666667 606.6467669333333 170.6666666666667 512C170.6666666666667 417.3532330666667 203.5538990933333 338.1607765333333 270.8573378133333 270.8573376000002C338.1607765333333 203.5538986666668 417.3532330666667 170.6666666666668 512 170.6666666666668C606.6467669333333 170.6666666666668 685.8392234666667 203.5538986666668 753.1426623999998 270.8573376000002C820.4461013333332 338.1607765333333 853.3333333333333 417.3532330666667 853.3333333333333 512C853.3333333333333 606.6467669333333 820.4461013333332 685.8392234666667 753.1426623999998 753.1426621866667L753.1426623999998 753.1426621866667L753.1426623999998 753.1426621866667zM798.3974954666666 798.3974961066667C877.6884501333334 719.10654144 917.3333333333331 623.641664 917.3333333333331 512C917.3333333333331 400.358336 877.6884501333334 304.8934592 798.3974954666666 225.6025045333335C719.1065408000001 146.3115498666666 623.641664 106.6666666666667 512 106.6666666666667C400.358336 106.6666666666667 304.89345856 146.3115498666666 225.6025038933334 225.6025045333335C146.3115492266667 304.8934592 106.6666666666667 400.358336 106.6666666666667 512C106.6666666666667 623.641664 146.3115492266667 719.10654144 225.6025038933334 798.3974961066667C304.89345856 877.6884507733333 400.358336 917.3333333333334 512 917.3333333333334C623.641664 917.3333333333334 719.1065408000001 877.6884507733333 798.3974954666666 798.3974961066667L798.3974954666666 798.3974961066667L798.3974954666666 798.3974961066667zM480 320L480 384.5L544 384.5L544 320zM602 687.8333333333334C627.0001258666666 662.8332074666667 639.5 632.8335082666667 639.5 597.8333333333334C639.5 570.8331989333334 623.5001599999999 543.0834752000001 591.5 514.5833344C559.49984 486.0831914666667 543.5 481.6667818666667 543.5 426.6666666666668L480.5 426.6666666666668C480.5 481.6667818666667 485.4999509333334 480.0832512000001 495.5 496.5833344C505.5000490666666 513.0834154666667 516.4999402666666 525.083296 528.5 532.5833344C540.5000597333333 540.0833706666667 551.4999509333334 549.3332778666668 561.5 560.3333333333334C571.5000490666666 571.3333888 576.5 583.8332629333333 576.5 597.8333333333334C576.5 614.8334186666667 570.000064 629.5832704 557 642.0833322666667C543.9999359999999 654.5833962666668 529.0000853333333 660.8333333333334 512 660.8333333333334C494.9999146666667 660.8333333333334 480.000064 654.5833962666668 467 642.0833322666667C453.999936 629.5832704 447.5 614.8334186666667 447.5 597.8333333333334L384.5 597.8333333333334C384.5 632.8335082666667 396.9998741333334 662.8332074666667 422 687.8333333333334C447.0001258666666 712.8334583466667 476.9998250666666 725.3333333333334 512 725.3333333333334C547.0001749333333 725.3333333333334 576.9998741333333 712.8334583466667 602 687.8333333333334z" />
    <glyph glyph-name="help"
      unicode="&#xEA0C;"
      horiz-adv-x="1024" d="M512 1003.52C240.5376000000001 1003.52 20.48 783.4624 20.48 512S240.5376000000001 20.4799999999999 512 20.4799999999999C783.4112 20.4799999999999 1003.52 240.5375999999999 1003.52 512.0511999999999C1003.52 783.4624 783.4112000000001 1003.52 512.0000000000001 1003.52zM504.2688000000001 225.3312H501.6576C461.6192 226.5088 433.3568 256.0511999999999 434.5344 295.5264C435.6608000000001 334.336 464.5888 362.5472 503.296 362.5472L505.6512 362.4447999999999C546.816 361.2671999999999 574.7712 332.032 573.5936 291.4303999999999C572.416 252.5184 544 225.3311999999999 504.2688000000001 225.3311999999999zM672.768 559.7184C663.3472000000002 546.4064000000001 642.6624000000002 529.7152 616.5504000000001 509.3887999999999L587.7760000000001 489.5744C572.0064000000001 477.2864 562.4832 465.6639999999999 558.9504000000001 454.3487999999999C556.0832 445.44 554.752 443.0335999999999 554.496 424.8576V420.2495999999999H444.6720000000001L444.9792000000001 429.5679999999999C446.3616 467.6607999999999 447.2832000000001 490.1887999999999 463.104 508.7743999999999C487.936 537.856 542.72 573.184 545.024 574.6687999999999C552.9088 580.5568000000001 559.5136 587.264 564.4288 594.4832C575.9488 610.4064000000001 581.0176 622.8992000000001 581.0176 635.0848000000001C581.0176 652.1856 575.9999999999999 668.0064 566.016 681.984C556.3904 695.6032 538.112 702.3616 511.6928 702.3616C485.4784 702.3616 467.5072 694.0672 456.8064000000001 676.9664C445.7472000000001 659.5072 440.1664000000001 641.1264000000001 440.1664000000001 622.336V617.6256000000001H326.9632000000001L327.1680000000001 622.5408C330.0864000000001 691.8144 354.8672000000001 741.7344 400.6400000000001 770.8672C429.4656000000001 789.3504 465.3568 798.72 507.1872000000001 798.72C561.8688000000001 798.72 608.1536 785.4080000000001 644.5056000000001 759.1936000000001C681.4208000000001 732.6208 700.1088000000001 692.7872 700.1088000000001 640.8704C700.0576000000001 611.84 690.8928000000001 584.5504000000001 672.768 559.7184000000001z" />
    <glyph glyph-name="instagram"
      unicode="&#xEA0D;"
      horiz-adv-x="864" d="M778.272 200V570.2719999999999H701.12Q712.544 534.2719999999999 712.544 495.424Q712.544 423.424 675.968 362.56T576.544 266.272T439.392 230.848Q326.8160000000001 230.848 246.816 308.288T166.816 495.424Q166.816 534.2719999999999 178.24 570.2719999999999H97.664V200Q97.664 185.1520000000001 107.68 175.136T132.544 165.12H743.3919999999999Q757.664 165.12 767.968 175.136T778.24 200zM616 504.576Q616 575.424 564.288 625.44T439.424 675.4560000000001Q366.848 675.4560000000001 315.136 625.44T263.424 504.576T315.136 383.712T439.424 333.6960000000001Q512.576 333.6960000000001 564.288 383.712T616 504.576zM778.272 710.2719999999999V804.544Q778.272 820.544 766.8480000000001 832.256T738.8480000000001 843.968H639.4240000000001Q622.8480000000001 843.968 611.4240000000001 832.256T600.0000000000001 804.544V710.2719999999999Q600.0000000000001 693.6959999999999 611.4240000000001 682.2719999999999T639.4240000000001 670.848H738.8480000000001Q755.4240000000001 670.848 766.8480000000001 682.2719999999999T778.272 710.2719999999999zM877.728 829.152V176.576Q877.728 130.304 844.5759999999999 97.152T765.1519999999999 64H112.5759999999999Q66.3039999999999 64 33.1519999999999 97.152T-1e-13 176.576V829.152Q-1e-13 875.424 33.1519999999999 908.576T112.5759999999999 941.728H765.1519999999999Q811.424 941.728 844.5759999999999 908.576T877.728 829.152z" />
    <glyph glyph-name="login-o"
      unicode="&#xEA0E;"
      horiz-adv-x="1024" d="M298.6666666666667 874.6666666666667L810.6666666666666 874.6666666666667L810.6666666666666 149.6292522666667L298.6666666666667 149.3333333333334L298.6666666666667 213.3333333333334L746.6666666666666 213.3333333333334L746.6666666666666 810.6666666666667L298.6666666666667 810.6666666666667L298.6666666666667 874.6666666666667L298.6666666666667 874.6666666666667L298.6666666666667 874.6666666666667zM106.6666666666667 544L437.3333333333333 544L320 661.3333333333334L362.6666666666667 704L554.6666666666666 512L362.6666666666667 320L320 362.6666666666668L437.3333333333333 480L106.6666666666667 480z" />
    <glyph glyph-name="logout-o"
      unicode="&#xEA0F;"
      horiz-adv-x="1024" d="M340.992 539.648H808.96L646.144 703.488L681.984 739.3280000000001L911.36 508.9280000000001L681.984 278.5280000000002L644.096 316.4160000000002L811.008 484.3520000000002H340.992V539.6480000000001zM569.344 910.336H113.6640000000001V113.664H569.344V171.0080000000001H142.3360000000001L171.0080000000001 142.336V881.664L142.3360000000001 852.992H569.344V910.336z" />
    <glyph glyph-name="logout"
      unicode="&#xEA10;"
      horiz-adv-x="1024" d="M365.568 200.704Q365.568 198.656 366.592 189.44T366.592 175.1039999999999L364.544 160.7679999999999Q363.52 151.5519999999999 359.424 149.5039999999999T347.136 146.4319999999999H164.864Q96.256 146.4319999999999 48.128 194.56T0 311.296V712.704Q0 781.3119999999999 48.128 829.4399999999999T164.864 877.568H347.136Q355.328 877.568 360.448 872.4479999999999T365.568 859.136L366.592 847.8719999999998Q367.616 838.656 366.592 832.512L364.544 819.1999999999998Q363.52 812.0319999999999 359.424 807.9359999999999T347.136 804.8639999999998H164.864Q126.976 804.8639999999998 100.352 777.2159999999999T72.704 712.7039999999998V311.2959999999998Q72.704 273.4079999999998 100.352 246.7839999999999T164.864 219.1359999999999H349.184Q355.328 219.1359999999999 356.352 217.0879999999999T360.448 214.0159999999999T364.544 208.8959999999999T365.568 200.7039999999998zM896 512Q896 497.664 884.736 486.4L574.4639999999999 175.1040000000001Q563.1999999999999 164.864 548.8639999999999 164.864T523.2639999999999 175.1040000000001T511.9999999999999 200.7040000000001V365.5680000000001H255.9999999999999Q241.6639999999999 365.5680000000001 230.3999999999999 376.8320000000001T219.1359999999999 402.4320000000002V621.5680000000001Q219.1359999999999 636.9280000000001 230.3999999999999 647.1680000000001T255.9999999999999 658.4320000000001H511.9999999999999V823.2960000000002Q511.9999999999999 837.6320000000002 523.2639999999999 848.8960000000002T548.8639999999999 859.1360000000002T574.4639999999999 848.8960000000002L884.7359999999999 537.6000000000001Q895.9999999999999 527.3600000000001 895.9999999999999 512.0000000000001z" />
    <glyph glyph-name="notifications-o"
      unicode="&#xEA11;"
      horiz-adv-x="1024" d="M64.512 319.4880000000001V319.4880000000001C64.512 356.3520000000001 64.512 387.0720000000001 64.512 382.9760000000001C72.704 382.9760000000001 81.92 384.0000000000001 90.112 385.0240000000001L128 384.0000000000001C128 384.0000000000001 128 384.0000000000001 128 384.0000000000001C128 382.9760000000001 128 382.9760000000001 128 382.9760000000001C128 380.9280000000001 128 380.9280000000001 128 377.8560000000001C128 369.6640000000001 128 369.6640000000001 128 357.3760000000001C128 327.6800000000001 128 327.6800000000001 128 290.8160000000001C128 288.7680000000001 128 288.7680000000001 128 287.7440000000001C128 215.0400000000001 128 215.0400000000001 128 191.4880000000001L64.512 254.9760000000001H381.952L393.216 206.8480000000001C395.264 199.6800000000001 402.432 183.2960000000001 414.7200000000001 167.936C436.2240000000001 142.336 464.896 128 509.952 128C553.984 128 584.704 143.36 607.232 168.96C620.544 185.3440000000001 627.712 200.7040000000001 629.76 208.8960000000001L643.072 254.9760000000001H960.512L896 191.4880000000001C896 201.7280000000001 896 201.7280000000001 896 240.6400000000001C896 263.1680000000001 896 263.1680000000001 896 287.7440000000002C896 359.4240000000002 896 359.4240000000002 896 382.9760000000001L960.512 319.4880000000001C775.1679999999999 319.4880000000001 694.2719999999999 433.1520000000001 704.512 704.5120000000001C704.512 811.008 619.52 896 511.9999999999999 896C407.552 896 321.536 806.912 321.536 706.5600000000001C328.704 473.0880000000001 236.544 319.4880000000001 64.5119999999999 319.4880000000001V319.4880000000001zM64.512 381.952C80.896 380.928 101.376 380.928 128 379.904V382.976C128 382.976 128 382.976 128 382.976S128 382.976 128 382.976H64.512C192.512 382.976 264.192 502.784 257.024 704.512C257.024 838.656 368.64 960.512 512 960.512C654.336 960.512 768 845.8240000000001 768 704.512C758.784 439.2960000000001 833.5360000000001 382.976 960.512 382.976C960.512 382.976 960.512 191.4880000000001 960.512 191.4880000000001H691.1999999999999C691.1999999999999 191.4880000000001 656.3839999999999 63.4880000000001 509.9519999999999 63.4880000000001C362.496 63.4880000000001 331.776 191.4880000000001 331.776 191.4880000000001H64.5119999999999C64.5119999999999 191.4880000000001 64.5119999999999 360.4480000000001 64.5119999999999 381.952V381.952z" />
    <glyph glyph-name="notifications"
      unicode="&#xEA12;"
      horiz-adv-x="1024" d="M521.216 55.2960000000001Q521.216 63.4880000000001 512 63.4880000000001Q478.208 63.4880000000001 453.632 88.0640000000001T430.08 146.4320000000001Q430.08 155.6480000000002 420.864 155.6480000000002T411.648 146.4320000000001Q411.648 104.4480000000001 441.344 74.7520000000002T512 46.0800000000002Q521.216 46.0800000000002 521.216 55.2960000000002zM987.136 219.136Q987.136 189.44 965.632 167.9359999999999T914.432 146.4319999999999H658.4319999999999Q658.4319999999999 86.0159999999999 615.4239999999999 43.0079999999999T511.9999999999999 0T408.5759999999999 43.008T365.568 146.432H109.5679999999999Q79.8719999999999 146.432 58.3679999999999 167.936T36.8639999999999 219.1360000000001Q65.5359999999999 243.7120000000001 89.0879999999999 269.3120000000002T137.2159999999999 337.9200000000001T180.2239999999999 429.0560000000001T207.8719999999999 545.792T219.1359999999999 695.296Q219.1359999999999 781.3120000000001 286.7199999999999 856.0640000000001T461.824 947.2Q456.704 957.44 456.704 968.704Q456.704 992.256 473.088 1007.616T511.9999999999999 1024T550.9119999999999 1007.616T567.2959999999999 968.704Q567.2959999999999 957.44 562.1759999999999 947.2Q670.7199999999999 930.816 737.28 856.0640000000001T804.864 695.296Q804.864 615.424 816.128 545.792T843.7760000000001 429.0560000000001T886.7840000000001 337.9200000000001T934.9120000000001 269.3120000000002T987.1360000000002 219.1360000000001z" />
    <glyph glyph-name="official-store-o"
      unicode="&#xEA13;"
      horiz-adv-x="1024" d="M395.264 217.088V217.088V217.088C400.384 214.016 404.48 209.92 411.648 204.8C441.3440000000001 179.1999999999999 452.608 171.0079999999999 472.064 163.8399999999999C484.352 157.6959999999999 497.664 155.6479999999999 512 155.6479999999999C523.264 155.6479999999999 534.528 156.6719999999999 543.744 159.7439999999999C561.152 165.8879999999999 572.416 173.0559999999999 601.0880000000001 195.584C615.4240000000001 206.848 622.5920000000001 211.968 632.8320000000001 218.112C650.2400000000001 228.352 665.6000000000001 233.472 687.1040000000002 237.568C689.1520000000002 237.568 697.3440000000002 239.616 700.4160000000002 239.616C719.8720000000002 242.688 732.1600000000002 248.832 752.6400000000002 270.336C774.1440000000002 291.8400000000001 780.2880000000002 304.1280000000001 784.3840000000002 323.5840000000001C784.3840000000002 326.6560000000001 786.4320000000002 337.9200000000001 787.4560000000002 340.9920000000001C790.5280000000002 359.4240000000001 794.6240000000003 373.7600000000001 803.8400000000003 389.1200000000001C809.9840000000003 399.3600000000002 815.1040000000003 407.5520000000002 826.3680000000003 420.8640000000002C851.9680000000003 453.6320000000002 860.1600000000003 465.9200000000002 865.2800000000003 487.4240000000002C867.3280000000003 495.6160000000002 868.3520000000003 503.8080000000002 868.3520000000003 513.0240000000002C868.3520000000003 525.3120000000002 867.3280000000003 535.5520000000002 863.2320000000003 544.7680000000003C858.1120000000003 559.1040000000003 850.9440000000003 569.3440000000003 830.4640000000003 593.9200000000003C814.0800000000003 613.3760000000002 806.9120000000003 622.5920000000003 800.7680000000003 636.9280000000002C795.6480000000003 646.1440000000002 792.5760000000002 656.3840000000002 789.5040000000002 667.6480000000003C788.4800000000002 674.8160000000003 783.3600000000002 698.3680000000003 783.3600000000002 696.3200000000003C778.2400000000002 721.9200000000003 771.0720000000002 736.2560000000003 753.6640000000002 753.6640000000002C737.2800000000002 770.0480000000002 722.9440000000002 777.2160000000002 699.3920000000002 782.3360000000002C694.2720000000002 783.3600000000002 678.9120000000001 786.4320000000002 677.8880000000001 786.4320000000002C667.6480000000001 788.4800000000002 659.4560000000001 790.5280000000002 651.2640000000001 793.6000000000003C645.1200000000001 795.6480000000003 640.0000000000001 797.6960000000003 634.8800000000001 800.7680000000003C624.6400000000001 806.9120000000003 616.4480000000001 813.0560000000003 602.1120000000001 824.3200000000003C573.44 848.8960000000003 560.128 857.0880000000003 539.6480000000001 862.2080000000003C530.4320000000001 864.2560000000003 521.2160000000001 865.2800000000003 509.9520000000001 865.2800000000003C472.0640000000001 863.2320000000003 458.7520000000001 857.0880000000003 425.9840000000001 830.4640000000003C410.6240000000001 817.1520000000003 402.4320000000001 809.9840000000003 390.1440000000001 802.8160000000003C371.7120000000001 792.5760000000002 356.3520000000001 787.4560000000004 333.8240000000002 783.3600000000004C327.6800000000001 782.3360000000002 327.6800000000001 782.3360000000002 323.5840000000001 782.3360000000002C301.0560000000001 778.2400000000002 290.8160000000002 773.1200000000003 270.3360000000002 752.6400000000003C250.8800000000002 733.1840000000002 244.7360000000002 719.8720000000003 239.6160000000002 698.3680000000003C239.6160000000002 696.3200000000003 237.5680000000002 684.0320000000003 236.5440000000001 680.9600000000003C232.4480000000001 662.5280000000002 228.3520000000001 648.1920000000002 219.1360000000002 632.8320000000003C212.9920000000001 622.5920000000003 206.8480000000001 614.4000000000003 194.5600000000002 599.0400000000003C168.9600000000002 566.2720000000003 160.7680000000002 552.9600000000003 157.6960000000002 528.3840000000002C156.6720000000002 523.2640000000004 156.6720000000002 517.1200000000003 156.6720000000002 512.0000000000002C156.6720000000002 508.9280000000003 156.6720000000002 505.8560000000003 157.6960000000002 502.7840000000003C159.7440000000002 472.0640000000003 168.9600000000002 455.6800000000003 198.6560000000002 419.8400000000004C208.8960000000002 407.5520000000004 215.0400000000001 400.3840000000004 220.1600000000002 392.1920000000004C228.3520000000002 378.8800000000004 233.4720000000002 365.5680000000003 237.5680000000002 349.1840000000003C238.5920000000002 343.0400000000003 242.6880000000002 323.5840000000003 242.6880000000002 322.5600000000003C246.7840000000002 301.0560000000003 252.9280000000002 287.7440000000003 270.3360000000002 270.3360000000003C286.7200000000002 252.9280000000002 301.0560000000002 246.7840000000002 322.5600000000002 241.6640000000002C309.2480000000002 244.7360000000002 356.3520000000002 235.5200000000002 368.6400000000002 231.4240000000002C377.8560000000002 228.3520000000002 387.0720000000002 223.2320000000002 395.2640000000002 217.0880000000002V217.0880000000002zM362.496 172.0320000000001V172.0320000000001C335.872 190.4640000000001 285.696 174.0800000000001 230.4 229.3760000000001C175.104 285.6960000000002 192.512 329.7280000000001 173.056 361.4720000000001C152.576 393.2160000000001 101.376 428.0320000000002 100.352 510.9760000000001C98.304 592.8960000000002 150.528 625.6640000000001 171.008 661.5040000000001S172.032 735.2320000000002 230.4 792.5760000000001C288.768 850.9440000000002 322.56 829.4400000000002 361.472 851.9680000000001C400.384 875.5200000000001 421.888 918.5280000000002 508.928 921.6000000000003C594.944 924.6720000000003 632.832 867.3280000000002 662.528 850.9440000000002S742.4 845.8240000000001 794.624 793.6000000000001C845.8240000000001 741.3760000000002 835.5840000000001 695.2960000000002 851.9680000000001 661.5040000000001C868.3520000000001 626.6880000000001 926.72 591.8720000000001 925.696 512.0000000000001S873.472 395.2640000000001 852.9920000000001 360.4480000000001C832.5120000000001 325.6320000000001 855.0400000000001 290.8160000000001 793.6 229.3760000000001C732.1600000000001 168.96 699.392 192.5120000000001 662.528 169.984C625.664 146.432 588.8000000000001 98.3040000000001 512 98.3040000000001S389.12 151.5520000000001 362.496 172.0320000000001V172.0320000000001zM381.952 470.016L461.824 389.12L482.304 369.664L522.24 409.6L502.784 430.0800000000001L421.888 509.952L401.408 530.432L361.472 489.472L381.952 470.016zM502.784 389.12L663.552 549.888L683.008 570.368L643.072 610.3040000000001L622.592 590.848L461.824 430.0800000000001L442.368 409.6L482.3039999999999 369.664L502.7839999999999 389.12z" />
    <glyph glyph-name="register-o"
      unicode="&#xEA14;"
      horiz-adv-x="1024" d="M512.0446976 426.6666666666668C382.6204437333334 426.6666666666668 277.3333333333333 531.9140906666667 277.3333333333333 661.299808C277.3333333333333 790.73022528 382.6204437333334 896 512.0446976 896C641.4019050666666 896 746.6666666666666 790.73022528 746.6666666666666 661.299808C746.6666666666666 531.9140906666667 641.4019050666666 426.6666666666668 512.0446976 426.6666666666668L512.0446976 426.6666666666668L512.0446976 426.6666666666668zM512.0455104 832C417.9057770666667 832 341.3333333333333 755.4224503466667 341.3333333333333 661.2991978666668C341.3333333333333 567.2214592 417.9057770666667 490.6666666666667 512.0455104 490.6666666666667C606.1169770666667 490.6666666666667 682.6666666666666 567.2214592 682.6666666666666 661.2991978666668C682.6666666666666 755.4224503466667 606.1169770666667 832 512.0455104 832L512.0455104 832zM211.2096913066667 106.6666666666667L149.3333333333333 129.6513834666666C205.3051210666667 269.0267989333334 351.08387456 362.6666666666668 512.0331712 362.6666666666668C673.0709269333333 362.6666666666668 818.7833365333332 269.0055381333334 874.6666666666666 129.6301226666667L812.7460799999999 106.6879296000001C766.6815850666667 221.6540416000002 645.8258688 298.8792917333334 512.0331712 298.8792917333334C378.284704 298.8792917333334 257.38475776 221.6327786666668 211.2096913066667 106.6666666666667L211.2096913066667 106.6666666666667zM810.6666666666666 469.3333333333334L725.3333333333333 469.3333333333334L725.3333333333333 405.3333333333334L810.6666666666666 405.3333333333334L810.6666666666666 320L874.6666666666666 320L874.6666666666666 405.3333333333334L960 405.3333333333334L960 469.3333333333334L874.6666666666666 469.3333333333334L874.6666666666666 554.6666666666667L810.6666666666666 554.6666666666667z" />
    <glyph glyph-name="search-o"
      unicode="&#xEA15;"
      horiz-adv-x="1024" d="M398.725 334.318V334.318C555.55 334.318 683.675 462.443 683.675 619.268C683.675 777.1179999999999 555.55 904.218 398.725 904.218S113.775 777.1179999999999 113.775 619.268C113.775 462.443 241.9 334.318 398.725 334.318V334.318zM398.725 277.943V277.943C210.125 277.943 57.4 430.668 57.4 619.268S210.125 960.593 398.725 960.593C587.325 960.593 740.05 807.8679999999999 740.05 619.268S587.3249999999999 277.943 398.725 277.943V277.943zM634.476 343.543L882.5260000000001 95.4929999999999L922.501 135.468L903.026 155.968L675.4760000000001 383.5180000000001L654.9760000000001 402.9930000000001L615.0010000000001 363.0180000000001L634.4760000000001 343.543z" />
    <glyph glyph-name="search"
      unicode="&#xEA16;"
      horiz-adv-x="1024" d="M658.432 548.864Q658.432 654.336 582.6560000000001 729.088T402.4320000000001 804.864T221.1840000000001 729.088T146.4320000000001 548.864T221.1840000000001 367.616T402.4320000000001 292.8640000000001T582.6560000000001 367.616T658.432 548.864zM951.296 72.704Q951.296 43.0079999999999 928.768 21.5039999999999T876.544 0T826.3679999999999 21.504L630.7839999999999 217.088Q528.3839999999999 146.432 402.4319999999999 146.432Q320.5119999999999 146.432 245.7599999999999 178.1760000000001T117.7599999999999 264.192T31.7439999999999 392.192T-1e-13 548.864T31.7439999999999 704.5120000000001T117.7599999999999 833.5360000000001T245.7599999999999 919.552T402.4319999999999 951.296T558.0799999999999 919.552T687.1039999999999 833.5360000000001T773.1199999999999 704.5120000000001T804.8639999999999 548.864Q804.8639999999999 422.9120000000001 734.2079999999999 320.5120000000001L929.792 124.9280000000001Q951.296 103.4240000000001 951.296 72.7040000000001z" />
    <glyph glyph-name="sell-o"
      unicode="&#xEA17;"
      horiz-adv-x="1024" d="M310.4 713.0851733333334C298.4 700.9716096 276.8 700.9716096 264.8 713.0851733333334C259.2 718.7381696 256 726.8138794666667 256 735.6971605333333C256 744.5804416000001 259.2 752.6561514666666 265.6 758.3091477333334C272 764.7697152000001 280 768 288 768C296.8 768 304.8 764.7697152000001 310.4 758.3091477333334C316 751.8485802666667 320 743.7728704 320 735.6971605333333C320 727.6214506666668 316.8 718.7381696 310.4 713.0851733333334L310.4 713.0851733333334zM245.3333333333333 778.6666666666667H330.6666666666667V693.3333333333334H245.3333333333333V778.6666666666667zM597.3333333333333 170.6666666666668L853.3333333333333 426.6666666666668L426.6666666666667 853.3333333333334L213.5153109333333 853.3333333333334C189.8506581333333 853.3333333333334 170.6666666666667 834.0917256533334 170.6666666666667 810.4846890666668L170.6666666666667 597.3333333333334L597.3333333333333 170.6666666666668zM106.6666666666667 576L106.6666666666667 810.6666666666667C106.6666666666667 869.4445548799999 154.5110071466667 917.3333333333334 213.3333333333333 917.3333333333334L448 917.3333333333334L938.6666666666666 426.6666666666668L597.3333333333333 85.3333333333334L106.6666666666667 576z" />
    <glyph glyph-name="time-o"
      unicode="&#xEA18;"
      horiz-adv-x="1024" d="M512 171.0080000000001V171.0080000000001C700.4159999999999 171.0080000000001 852.992 323.5840000000001 852.992 512S700.4159999999999 852.9920000000001 511.9999999999999 852.9920000000001C323.584 852.9920000000001 171.0079999999999 700.416 171.0079999999999 512S323.584 171.0080000000001 511.9999999999999 171.0080000000001V171.0080000000001zM512 113.664V113.664C291.8400000000001 113.664 113.664 291.8399999999999 113.664 512S291.84 910.336 512 910.336C732.16 910.336 910.336 732.1600000000001 910.336 512S732.1600000000001 113.664 512 113.664V113.664zM512 454.6559999999999H710.656V512H483.328V454.6559999999999H512zM483.328 739.328V483.328H540.672V768H483.328V739.328z" />
    <glyph glyph-name="twitter"
      unicode="&#xEA19;"
      horiz-adv-x="1024" d="M925.696 790.528Q887.808 735.232 833.5360000000001 695.296V671.7439999999999Q833.5360000000001 596.992 812.032 523.264T746.4960000000001 380.928T641.0240000000001 261.12T493.5680000000001 177.1520000000001T308.2240000000001 146.432Q153.6000000000001 146.432 25.6000000000001 229.376Q45.0560000000001 226.304 69.6320000000001 226.304Q198.6560000000001 226.304 299.0080000000001 305.152Q238.5920000000001 307.2 191.4880000000001 342.016T125.9520000000001 433.152Q145.4080000000001 431.104 160.7680000000001 431.104Q185.3440000000001 431.104 209.9200000000001 437.248Q145.4080000000001 450.5599999999999 103.4240000000001 500.7359999999999T61.4400000000001 618.4959999999999V620.5439999999999Q100.3520000000001 599.0399999999998 145.4080000000001 596.9919999999998Q107.5200000000001 622.5919999999999 84.9920000000001 662.5279999999998T62.4640000000001 751.6159999999999T88.0640000000001 843.7759999999998Q157.6960000000002 758.7839999999999 256.0000000000001 707.5839999999998T468.9920000000001 651.2639999999999Q463.8720000000001 672.7679999999998 463.8720000000001 693.2479999999998Q463.8720000000001 770.0479999999998 518.1440000000001 823.2959999999998T648.1920000000001 877.5679999999998Q729.0880000000001 877.5679999999998 783.3600000000001 819.1999999999998Q845.8240000000001 831.4879999999998 900.0960000000001 864.2559999999999Q879.6160000000001 798.7199999999998 819.2000000000002 761.8559999999998Q872.4480000000002 767.9999999999998 925.6960000000003 790.5279999999998z" />
    <glyph glyph-name="user-o"
      unicode="&#xEA1A;"
      horiz-adv-x="1024" d="M512.0446976 426.6666666666668C382.6204437333334 426.6666666666668 277.3333333333333 531.9140906666667 277.3333333333333 661.299808C277.3333333333333 790.7302250666667 382.6204437333334 896 512.0446976 896C641.4019050666666 896 746.6666666666666 790.7302250666667 746.6666666666666 661.299808C746.6666666666666 531.9140906666667 641.4019050666666 426.6666666666668 512.0446976 426.6666666666668L512.0446976 426.6666666666668zM512.0455104 832C417.9057770666667 832 341.3333333333333 755.4224512000001 341.3333333333333 661.2991978666666C341.3333333333333 567.2214592 417.9057770666667 490.6666666666667 512.0455104 490.6666666666667C606.1169770666667 490.6666666666667 682.6666666666666 567.2214592 682.6666666666666 661.2991978666666C682.6666666666666 755.4224512000001 606.1169770666667 832 512.0455104 832zM211.2096913066667 106.6666666666667L149.3333333333333 129.6513834666666C205.3051210666667 269.0267989333334 351.0838741333333 362.6666666666668 512.0331712 362.6666666666668C673.0709269333333 362.6666666666668 818.7833365333332 269.0055381333334 874.6666666666666 129.6301226666667L812.74608 106.6879296000001C766.6815850666667 221.6540416 645.8258688 298.8792917333334 512.0331712 298.8792917333334C378.284704 298.8792917333334 257.3847573333333 221.6327786666668 211.2096913066667 106.6666666666667z" />
    <glyph glyph-name="user"
      unicode="&#xEA1B;"
      horiz-adv-x="1024" d="M0 31.744Q0 40.96 1.024 55.2960000000001T12.288 103.4240000000001T39.936 154.1120000000001T109.568 192.5120000000001T227.3280000000001 236.5440000000001T322.5600000000001 275.4560000000002Q361.4720000000001 294.9120000000002 382.9760000000001 332.8000000000002T403.4560000000001 410.6240000000002Q403.4560000000001 438.2720000000002 370.6880000000001 475.1360000000002Q336.8960000000001 514.0480000000002 316.4160000000001 579.5840000000002T295.9360000000001 732.1600000000002Q295.9360000000001 797.6960000000001 314.3680000000001 847.8720000000002T364.5440000000001 929.7920000000001T437.2480000000001 975.8720000000002T524.2880000000001 991.2320000000002T611.3280000000001 975.8720000000002T684.032 929.7920000000001T734.2080000000001 847.8720000000002T752.6400000000001 732.1600000000002Q752.6400000000001 646.1440000000002 732.1600000000001 579.5840000000002T678.4000000000001 475.1360000000002T645.1200000000001 410.6240000000003Q645.1200000000001 370.6880000000002 666.6240000000001 332.8000000000003T727.0400000000002 275.4560000000003Q756.7360000000002 260.0960000000003 822.2720000000002 236.5440000000002T939.0080000000002 192.5120000000002T1008.1280000000002 154.1120000000002T1036.2880000000002 105.4720000000002T1047.5520000000001 53.2480000000002L1048.576 31.7440000000001H0z" />
    <glyph glyph-name="youtube"
      unicode="&#xEA1C;"
      horiz-adv-x="864" d="M554.848 304V183.424Q554.848 145.1519999999999 532.5759999999999 145.1519999999999Q519.4239999999999 145.1519999999999 506.8479999999999 157.728V329.728Q519.4239999999999 342.304 532.5759999999999 342.304Q554.848 342.304 554.848 304.032zM748 303.424V277.152H696.576V303.424Q696.576 342.272 722.304 342.272T748.0319999999999 303.424zM196 428H257.152V481.728H78.88V428H138.88V102.848H196.032V428zM360.576 102.848H411.4240000000001V385.1199999999999H360.576V169.1199999999999Q343.4240000000001 145.1199999999999 328 145.1199999999999Q317.728 145.1199999999999 316 157.1199999999999Q315.424 158.8479999999999 315.424 177.1199999999999V385.1199999999999H264.576V161.6959999999999Q264.576 133.6959999999999 269.152 119.968Q276 98.8159999999999 302.304 98.8159999999999Q329.728 98.8159999999999 360.576 133.6639999999999V102.8159999999999zM605.728 187.424V300Q605.728 341.728 600.5759999999999 356.576Q590.848 388.576 559.9999999999999 388.576Q531.4239999999999 388.576 506.8479999999999 357.7280000000001V481.7280000000001H455.9999999999999V102.8800000000001H506.8479999999999V130.3040000000001Q532.5759999999999 98.8800000000001 559.9999999999999 98.8800000000001Q590.8479999999998 98.8800000000001 600.5759999999999 130.3040000000001Q605.728 145.7280000000001 605.728 187.4560000000001zM798.848 193.1520000000001V200.576H746.848Q746.848 171.424 745.6959999999999 165.7280000000001Q741.6959999999999 145.1520000000001 722.848 145.1520000000001Q696.5759999999999 145.1520000000001 696.5759999999999 184.576V234.304H798.848V293.152Q798.848 338.304 783.424 359.424Q761.1519999999999 388.576 722.848 388.576Q684 388.576 661.6959999999999 359.424Q645.6959999999999 338.272 645.6959999999999 293.152V194.304Q645.6959999999999 149.1519999999999 662.2719999999999 128.0319999999999Q684.544 98.8799999999999 723.9999999999999 98.8799999999999Q765.1519999999999 98.8799999999999 785.7279999999998 129.1519999999999Q795.9999999999999 144.5759999999999 797.7279999999998 159.9999999999999Q798.8799999999999 165.1519999999999 798.8799999999999 193.1519999999999zM451.424 714.848V834.848Q451.424 874.272 426.848 874.272T402.272 834.848V714.848Q402.272 674.848 426.848 674.848T451.424 714.848zM862.272 285.728Q862.272 152 847.4240000000001 85.728Q839.4240000000001 52 814.272 29.1519999999999T756 2.8799999999999Q650.848 -9.1200000000001 438.848 -9.1200000000001T121.696 2.8799999999999Q88.544 6.3039999999999 63.136 29.1519999999999T30.272 85.728Q15.424 149.728 15.424 285.728Q15.424 419.4559999999999 30.272 485.728Q38.272 519.4559999999999 63.424 542.304T122.272 569.152Q226.848 580.576 438.8480000000001 580.576T756 569.152Q789.152 565.152 814.56 542.304T847.424 485.728Q862.2719999999999 421.728 862.2719999999999 285.728zM292 1014.848H350.272L281.12 786.848V632H223.968V786.848Q215.968 829.12 189.12 908Q167.968 966.848 151.968 1014.848H212.544L253.12 864.576zM503.424 824.576V724.576Q503.424 678.3040000000001 487.424 657.152Q466.272 628 426.848 628Q388.576 628 366.848 657.152Q350.848 678.8800000000001 350.848 724.576V824.576Q350.848 870.3040000000001 366.848 891.424Q388.576 920.576 426.848 920.576Q466.2719999999999 920.576 487.424 891.424Q503.424 870.272 503.424 824.576zM694.848 917.152V632H642.848V663.424Q612.5759999999999 628 584 628Q557.728 628 550.272 649.152Q545.696 662.88 545.696 692V917.152H597.696V707.424Q597.696 688.576 598.272 687.424Q600 674.848 610.272 674.848Q625.696 674.848 642.8480000000001 699.424V917.152H694.8480000000001z" />
    <glyph glyph-name="close-o"
      unicode="&#xEA1D;"
      horiz-adv-x="1024" d="M465.1707306666667 512L192 238.8292693333333L238.8292682666667 192L512 465.1707306666667L785.1707306666667 192L832 238.8292693333333L558.8292693333333 512L832 785.1707317333334L785.1707306666667 831.9999999999998L512 558.8292693333333L238.8292682666667 832L192 785.1707317333334L465.1707306666667 512z" />
    <glyph glyph-name="bookmarks-medium"
      unicode="&#xEA1E;"
      horiz-adv-x="1024" d="M263.872 891.7760000000001C210.496 891.7760000000001 160.32 871.04 122.56 833.5360000000001C84.8 795.712 64 745.7919999999999 64 692.48C64 639.36 84.8 589.312 122.56 551.6800000000001L503.488 172.1600000000001L901.568 568.768C979.456 646.336 979.456 772.672 901.568 850.24C863.808 887.8720000000001 813.632 908.608 760.256 908.608C706.816 908.608 656.576 887.8720000000001 618.816 850.24L503.488 735.36L405.12 833.472C367.36 871.04 317.248 891.712 263.872 891.712zM573.6320000000001 895.808C623.616 945.408 689.92 972.8 760.32 972.8C830.528 972.8 896.96 945.408 946.752 895.808C1049.7920000000001 793.152 1049.7920000000001 626.1759999999999 946.752 523.5840000000001L503.4880000000001 81.9839999999999L77.44 506.624C27.52 556.1600000000001 0 622.4 0 692.608S27.52 829.12 77.44 878.848C127.104 928.384 193.536 955.776 263.872 955.776C334.272 955.776 400.576 928.384 450.304 878.784L503.424 825.792L573.696 895.8720000000001z" />
    <glyph glyph-name="cart-empty-medium"
      unicode="&#xEA1F;"
      horiz-adv-x="1344" d="M547.712 64C600.832 64 643.712 107.008 643.712 160S600.832 256 547.712 256C494.72 256 451.712 212.992 451.712 160S494.72 64 547.712 64zM547.712 0C459.392 0 387.712 71.6800000000001 387.712 160S459.392 320 547.712 320S707.712 248.32 707.712 160S636.0319999999999 0 547.712 0zM1059.712 64C1112.8319999999999 64 1155.712 107.008 1155.712 160S1112.8319999999999 256 1059.712 256C1006.72 256 963.712 212.992 963.712 160S1006.72 64 1059.712 64zM1059.712 0C971.392 0 899.712 71.6800000000001 899.712 160S971.392 320 1059.712 320S1219.712 248.32 1219.712 160S1148.032 0 1059.712 0zM478.208 446.208H1111.808L1238.016 830.848H328.192L478.208 446.208zM288 894.848H1326.4L1158.0800000000002 382.2080000000001H434.56L213.376 948.992H5.248V1012.992H257.28L320 851.968L288 894.848z" />
    <glyph glyph-name="phone"
      unicode="&#xEA20;"
      horiz-adv-x="1024.0021104177144" d="M512.0021104177143 1024C229.252565888725 1024 0.0021104177143 794.7495445289894 0.0021104177143 512C0.0021104177143 229.2546763064393 229.252565888725 0 512.0021104177143 0C794.7516549467038 0 1023.9978895822856 229.2567867241536 1023.9978895822856 512C1024 794.7495445289894 794.7516549467036 1024 512.0021104177143 1024zM782.3719446345102 276.9353437260414L741.3770805338697 235.9320379545437C734.0581519006124 228.6236614098581 712.6268600117062 224.0630487292153 711.9388638368382 224.0630487292153C582.2494744565262 222.9318648343406 457.3781687180036 273.873127622565 365.6298690057129 365.629869005713C273.6304295854183 457.6820688688656 222.6300751011928 582.9986727451094 223.9997361977856 713.1249185922854C223.9997361977856 713.1840102882863 228.6933051944304 734.001170622326 236.0059025745447 741.2441242178677L276.998656257471 782.243209153937C291.9995053708482 797.3137020518867 320.8151488421556 804.1240200159931 341.0012942796139 797.3706833301733L349.62446106032 794.4941839855569C369.7515148017774 787.7471785528801 390.8831273752504 765.4928237553895 396.4440780524802 744.9901156607834L417.0649695390881 669.3063155898866C422.6259202163178 648.7445157992796 415.1254956596292 619.4920158611083 400.1288673816806 604.4911667477311L372.7567496269672 577.1148281575889C399.6308088011014 477.6255162691773 477.6930496360354 399.548502510243 577.1992448661616 372.609020386965L604.5608105323033 399.99169023025C619.6313034302532 415.0621831281998 648.8732512798529 422.5562764317455 669.3907322984592 417.0037674253729L745.0639802807843 396.3090113187639C765.570909210819 390.6741960215329 787.821043172881 369.675539764062 794.5659381878436 349.5548172757476L797.44243753246 340.8071358498967C804.1282408514217 320.6779716907249 797.3706833301733 291.8686594725605 782.3719446345102 276.9353437260414z" />
    <glyph glyph-name="cart-empty-small"
      unicode="&#xEA21;"
      horiz-adv-x="1166" d="M486.87 85.333C534 85.333 572.204 123.538 572.204 170.666S534 256 486.87 256C439.743 256 401.538 217.794 401.538 170.666S439.743 85.333 486.871 85.333zM486.87 0C392.6140000000001 0 316.204 76.41 316.204 170.667S392.6140000000001 341.3340000000001 486.871 341.3340000000001C581.129 341.3340000000001 657.539 264.9240000000001 657.539 170.667S581.128 0 486.87 0zM941.982 85.333C989.11 85.333 1027.315 123.538 1027.315 170.666S989.11 256 941.982 256S856.649 217.794 856.649 170.666S894.853 85.333 941.981 85.333zM941.982 0C847.7249999999999 0 771.3149999999999 76.41 771.3149999999999 170.667S847.7249999999999 341.3340000000001 941.982 341.3340000000001S1112.649 264.9240000000001 1112.649 170.667S1036.24 0 941.98 0zM434.796 496.177H975.2159999999998L1039.4289999999999 762.75H330.85L434.7940000000001 496.177zM296.376 848.0830000000001H1147.759L1042.435 410.8430000000001H376.48L180.03 914.656H4.662V999.988H238.346L324.819 778.222L296.375 848.0840000000001z" />
    <glyph glyph-name="cart-full-medium"
      unicode="&#xEA22;"
      horiz-adv-x="1344" d="M547.712 64C600.832 64 643.712 107.008 643.712 160S600.832 256 547.712 256C494.72 256 451.712 212.992 451.712 160S494.72 64 547.712 64zM547.712 0C459.392 0 387.712 71.6800000000001 387.712 160S459.392 320 547.712 320S707.712 248.32 707.712 160S636.0319999999999 0 547.712 0zM1059.712 64C1112.8319999999999 64 1155.712 107.008 1155.712 160S1112.8319999999999 256 1059.712 256C1006.72 256 963.712 212.992 963.712 160S1006.72 64 1059.712 64zM1059.712 0C971.392 0 899.712 71.6800000000001 899.712 160S971.392 320 1059.712 320S1219.712 248.32 1219.712 160S1148.032 0 1059.712 0zM213.44 948.992L434.496 382.208H1158.016L1312.5120000000002 852.864L1251.7120000000002 872.832L1111.5520000000001 446.208H478.272L257.28 1012.992H5.12V948.992" />
    <glyph glyph-name="cart-full-small"
      unicode="&#xEA23;"
      horiz-adv-x="1166" d="M486.87 85.333C534 85.333 572.204 123.538 572.204 170.666S534 256 486.87 256C439.743 256 401.538 217.794 401.538 170.666S439.743 85.333 486.871 85.333zM486.87 0C392.6140000000001 0 316.204 76.41 316.204 170.667S392.6140000000001 341.3340000000001 486.871 341.3340000000001C581.129 341.3340000000001 657.539 264.9240000000001 657.539 170.667S581.128 0 486.87 0zM941.982 85.333C989.11 85.333 1027.315 123.538 1027.315 170.666S989.11 256 941.982 256S856.649 217.794 856.649 170.666S894.853 85.333 941.981 85.333zM941.982 0C847.7249999999999 0 771.3149999999999 76.41 771.3149999999999 170.667S847.7249999999999 341.3340000000001 941.982 341.3340000000001S1112.649 264.9240000000001 1112.649 170.667S1036.24 0 941.98 0zM376.48 410.8440000000001H1042.275L1150.13 849.58L1067.2630000000001 869.95L975.3790000000002 496.177H434.796L238.346 999.987H4.663V914.655H180.03z" />
    <glyph glyph-name="help-medium"
      unicode="&#xEA24;"
      horiz-adv-x="1024" d="M554.688 438.144H475.008L474.688 459.072C474.688 484.864 478.976 506.176 487.488 522.816C496.064 539.456 513.088 558.144 538.688 579.008C564.288 599.808 579.648 613.568 584.768 619.9680000000001C592.448 630.2080000000001 596.288 641.408 596.288 653.696C596.288 670.7840000000001 589.44 685.376 575.808 697.6C562.112 709.76 543.808 715.9680000000001 520.64 715.9680000000001C498.24 715.9680000000001 479.68 709.568 464.704 696.896C449.728 684.096 439.424 664.704 433.7920000000001 638.656L353.1520000000001 648.704C355.456 685.952 371.3920000000001 717.6320000000001 400.8320000000001 743.6800000000001C430.2720000000001 769.792 468.9920000000001 782.72 516.9280000000001 782.72C567.3600000000001 782.72 607.488 769.664 637.248 743.296C667.072 716.928 681.9200000000001 686.336 681.9200000000001 651.264C681.9200000000001 631.8720000000001 676.48 613.504 665.5360000000001 596.2239999999999C654.6560000000001 578.944 631.2320000000001 555.392 595.392 525.6320000000001C576.8320000000001 510.272 565.312 497.792 560.8320000000001 488.5120000000001C556.3520000000001 479.0400000000001 554.3040000000001 462.272 554.7520000000001 438.144zM475.008 320V407.808H562.816V320H475.008zM512 64C759.424 64 960 264.576 960 512S759.424 960 512 960S64 759.424 64 512S264.576 64 512 64zM512 0C229.248 0 0 229.2480000000001 0 512S229.248 1024 512 1024S1024 794.752 1024 512S794.752 0 512 0z" />
    <glyph glyph-name="notifications-medium"
      unicode="&#xEA25;"
      horiz-adv-x="1024" d="M320 760.96C320 495.3599999999999 192 362.688 64 296.32V229.952H384S384 64 512 64S640 229.952 640 229.952H960V296.3200000000001C832 362.6880000000001 704 495.36 704 760.96C704 827.2 704 960 512 960S320 827.264 320 760.96zM0 165.952V335.232L34.56 353.152C173.824 425.28 256 553.088 256 760.768C256 802.56 257.536 826.432 264.96 856.96C289.92 960.832 371.2 1024 512 1024S734.08 960.768 759.04 856.96C766.4639999999999 826.496 768 802.56 768 760.96C768 553.152 850.176 425.3440000000001 989.44 353.088L1024 335.168V165.952H696.512C693.4399999999999 152.384 689.2159999999999 138.304 683.712 123.904C655.04 49.5359999999999 597.76 0 512 0C426.24 0 368.9600000000001 49.5360000000001 340.288 123.904C334.784 138.304 330.56 152.384 330.4960000000001 165.952H0z" />
    <glyph glyph-name="user-medium"
      unicode="&#xEA26;"
      horiz-adv-x="1024" d="M68.48 0C99.584 217.088 286.336 384 512 384S924.416 217.088 955.52 0H890.688C860.2239999999999 181.6320000000001 702.2719999999999 320 512 320S163.84 181.6320000000001 133.312 0H68.48zM512 512C370.56 512 256 626.56 256 768S370.56 1024 512 1024S768 909.44 768 768S653.44 512 512 512zM512 576C618.048 576 704 661.952 704 768S618.048 960 512 960S320 874.048 320 768S405.952 576 512 576z" />
    <glyph glyph-name="search-ml"
      unicode="&#xEA27;"
      horiz-adv-x="1024" d="M0 640C0 427.904 171.904 256 384 256S768 427.904 768 640S596.096 1024 384 1024S0 852.096 0 640H64C64 816.64 207.36 960 384 960S704 816.64 704 640S560.64 320 384 320S64 463.36 64 640H0zM615.872 362.88L969.344 9.3440000000001L1014.656 54.6560000000001L661.184 408.1280000000001L616.064 362.8160000000001z" />
    <glyph glyph-name="user-rounded"
      unicode="&#xEA28;"
      horiz-adv-x="1024" d="M512.009309090909 372.3775999999999C374.8864 372.3775999999999 255.0318545454546 286.5477818181818 207.8813090909091 160.4561454545453C109.2514909090909 245.8670545454545 46.5547636363636 371.6328727272727 46.5547636363636 512.0139636363635C46.5547636363636 768.6656 255.3576727272728 977.468509090909 512.009309090909 977.468509090909C768.6144 977.468509090909 977.4638545454546 768.6656 977.4638545454546 512.0139636363635C977.4638545454546 371.6328727272727 914.7205818181818 245.8670545454545 816.1373090909091 160.4561454545453C768.9867636363637 286.5477818181818 649.1322181818182 372.3775999999999 512.009309090909 372.3775999999999zM512.009309090909 325.8321454545454C634.563490909091 325.8321454545454 741.1060363636363 245.9136 777.5045818181818 130.2481454545455C702.147490909091 77.6517818181817 610.6856727272727 46.5594181818182 512.009309090909 46.5594181818182C413.3329454545455 46.5594181818182 321.8711272727273 77.6517818181817 246.5140363636364 130.2481454545455C282.9125818181818 245.9136 389.4551272727273 325.8321454545454 512.009309090909 325.8321454545454zM0.0093090909091 512.0139636363635C0.0093090909091 229.6692363636364 229.6645818181818 0.0139636363635 512.009309090909 0.0139636363635C794.3074909090909 0.0139636363635 1024.009309090909 229.6692363636364 1024.009309090909 512.0139636363635C1024.009309090909 794.3121454545454 794.3074909090909 1024.0139636363635 512.009309090909 1024.0139636363635C229.6645818181818 1024.0139636363635 0.0093090909091 794.3121454545454 0.0093090909091 512.0139636363635zM512 512C435.0138181818182 512 372.3636363636364 574.6501818181819 372.3636363636364 651.6363636363636C372.3636363636364 728.6225454545454 435.0138181818182 791.2727272727273 512 791.2727272727273C588.9861818181819 791.2727272727273 651.6363636363636 728.6225454545454 651.6363636363636 651.6363636363636C651.6363636363636 574.6501818181819 588.9861818181819 512 512 512M512 837.8181818181818C409.3207272727273 837.8181818181818 325.8181818181818 754.3156363636364 325.8181818181818 651.6363636363636C325.8181818181818 548.957090909091 409.3207272727273 465.4545454545455 512 465.4545454545455C614.6792727272727 465.4545454545455 698.1818181818182 548.957090909091 698.1818181818182 651.6363636363636C698.1818181818182 754.3156363636364 614.6792727272727 837.8181818181818 512 837.8181818181818" />
    <glyph glyph-name="app"
      unicode="&#xEA29;"
      horiz-adv-x="768" d="M160 960C106.98066432 960 64 917.01933568 64 864L64 160C64 106.9806656 106.98066432 64 160 64L608 64C661.0193344 64 704 106.9806656 704 160L704 864C704 917.01933568 661.0193344 960 608 960L160 960zM160 1024L608 1024C696.3655616 1024 768 952.36555968 768 864L768 160C768 71.6344384 696.3655616 0 608 0L160 0C71.63444032 0 0 71.6344384 0 160L0 864C0 952.36555968 71.63444032 1024 160 1024zM384 192C348.653776 192 320 220.6537792 320 256C320 291.3462208 348.653776 320 384 320C419.346224 320 448 291.3462208 448 256C448 220.6537792 419.346224 192 384 192z" />
    <glyph glyph-name="search-plus"
      unicode="&#xEA2A;"
      horiz-adv-x="1024" d="M402.2857142857143 292.5714285714287C584.0662944914285 292.5714285714287 731.4285714285713 439.9337055085715 731.4285714285713 621.7142857142858C731.4285714285713 803.49486592 584.0662944914285 950.8571428571428 402.2857142857143 950.8571428571428C220.50513408 950.8571428571428 73.1428571428571 803.49486592 73.1428571428571 621.7142857142858C73.1428571428571 439.9337055085715 220.50513408 292.5714285714287 402.2857142857143 292.5714285714287zM402.2857142857143 219.4285714285715C180.1094495085714 219.4285714285715 0 399.538020937143 0 621.7142857142858C0 843.8905504914286 180.1094495085714 1024 402.2857142857143 1024C624.461979062857 1024 804.5714285714286 843.8905504914286 804.5714285714286 621.7142857142858C804.5714285714286 399.538020937143 624.461979062857 219.4285714285715 402.2857142857143 219.4285714285715zM643.1373326628571 329.1428571428572L694.8571428571428 380.8626673371429L1008.7964013714284 66.9234102857143L957.0765897142855 15.2035986285715z" />
    <glyph glyph-name="vender-mobile"
      unicode="&#xEA2B;"
      horiz-adv-x="1024" d="M538.9473684210526 -3.2336842105262L13.4736842105263 522.24V1010.5263157894736H501.76L1027.2336842105262 485.0526315789474L538.9473684210526 -3.2336842105262zM538.9473684210526 111.023157894737L912.9768421052632 485.0526315789474L468.3452631578947 929.6842105263158H94.3157894736842V555.6547368421052L538.9473684210526 111.0231578947369zM323.3684210526316 606.3157894736842A94.3157894736842 94.3157894736842 0 1 0 323.3684210526316 794.9473684210527A94.3157894736842 94.3157894736842 0 0 0 323.3684210526316 606.3157894736842z" />
    <glyph glyph-name="bookmarks-mobile"
      unicode="&#xEA2C;"
      horiz-adv-x="1137.7777777777778" d="M568.8888888888889 877.4542222222223L613.7173333333333 922.2826666666668A297.8133333333334 297.8133333333334 0 0 0 824.8888888888888 1009.7777777777778C905.1022222222222 1009.7777777777778 980.4231111111112 977.92 1036.0604444444443 922.3395555555556A297.9840000000001 297.9840000000001 0 0 0 1123.5555555555554 711.1111111111111C1123.5555555555554 630.8977777777777 1091.697777777778 555.52 1036.0604444444443 499.9395555555556L568.8888888888889 32.768L101.7173333333333 499.9395555555556A297.8133333333334 297.8133333333334 0 0 0 14.2222222222222 711.1111111111111C14.2222222222222 791.3244444444445 46.08 866.6453333333334 101.6604444444444 922.2826666666668L114.176 934.7982222222222H114.9724444444444A297.5288888888889 297.5288888888889 0 0 0 312.8888888888889 1009.7777777777778C393.1022222222222 1009.7777777777778 468.4231111111111 977.92 524.0604444444444 922.2826666666668L568.8888888888889 877.4542222222223zM824.8888888888888 924.4444444444443C767.4879999999999 924.4444444444443 713.8417777777778 901.6888888888888 674.0195555555555 861.9804444444444L568.8888888888889 756.7928888888889L538.7377777777778 786.944L463.7582222222222 861.9235555555556A212.6506666666667 212.6506666666667 0 0 1 312.8888888888889 924.4444444444443C255.4311111111111 924.4444444444443 201.7848888888889 901.7457777777778 162.0764444444444 861.9804444444444L159.3457777777778 859.2497777777778A212.5937777777778 212.5937777777778 0 0 1 99.5555555555555 711.1111111111111C99.5555555555555 653.7102222222222 122.3111111111111 600.0640000000001 162.0195555555556 560.2417777777778L568.8888888888889 153.4293333333334L975.7582222222222 560.2417777777778C1015.5235555555556 600.064 1038.2222222222222 653.7102222222222 1038.2222222222222 711.1111111111111C1038.2222222222222 768.4551111111111 1015.4666666666666 822.1582222222222 975.7582222222222 861.9804444444444A212.6506666666667 212.6506666666667 0 0 1 824.8888888888888 924.4444444444443z" />
    <glyph glyph-name="categories-mobile"
      unicode="&#xEA2D;"
      horiz-adv-x="1024" d="M371.3536000000001 832V908.8H1011.2V832H371.3536000000001zM371.3536000000001 473.6V550.4H1011.2V473.6H371.3536000000001zM371.3536000000001 115.1999999999999V192H1011.2V115.1999999999999H371.3536000000001zM115.2 908.8V832H192V908.8H115.2zM268.8 985.6V755.2H38.4V985.6H268.8zM115.2 550.4V473.6H192V550.4H115.2zM268.8 627.2V396.8H38.4V627.2H268.8zM115.2 192V115.1999999999999H192V192H115.2zM268.8 268.8V38.4H38.4V268.8H268.8z" />
    <glyph glyph-name="create-account-mobile"
      unicode="&#xEA2E;"
      horiz-adv-x="835.3684210526316" d="M603.6210526315789 222.3157894736843A356.4328421052631 356.4328421052631 0 0 1 377.2631578947368 303.1578947368422C237.9452631578947 303.1578947368422 113.178947368421 222.6391578947369 54.4875789473684 98.9507368421052L17.946947368421 116.2778947368421A397.4736842105263 397.4736842105263 0 0 0 377.2631578947368 343.5789473684211A396.7730526315789 396.7730526315789 0 0 0 626.5263157894736 255.7574736842106V222.3157894736843H603.6210526315789zM707.3684210526316 181.8947368421053H828.6315789473683V141.4736842105264H707.3684210526316V20.2105263157895H666.9473684210526V141.4736842105264H545.6842105263157V181.8947368421053H666.9473684210526V303.1578947368422H707.3684210526316V181.8947368421053zM377.2631578947368 437.8947368421053C217.2766315789474 437.8947368421053 87.578947368421 567.5924210526316 87.578947368421 727.578947368421S217.2766315789474 1017.2631578947368 377.2631578947368 1017.2631578947368S666.9473684210526 887.5654736842105 666.9473684210526 727.578947368421S537.2496842105263 437.8947368421053 377.2631578947368 437.8947368421053zM377.2631578947368 478.3157894736843A249.2631578947368 249.2631578947368 0 1 1 377.2631578947368 976.842105263158A249.2631578947368 249.2631578947368 0 0 1 377.2631578947368 478.3157894736843zM377.2631578947368 545.6842105263158V586.1052631578948A141.4736842105263 141.4736842105263 0 1 1 377.2631578947368 869.0526315789474V909.4736842105264A181.8947368421053 181.8947368421053 0 0 0 377.2631578947368 545.6842105263158z" />
    <glyph glyph-name="deals-mobile"
      unicode="&#xEA2F;"
      horiz-adv-x="979.4782608695652" d="M39.9230755617391 1024.0000000000014L124.5357394365217 922.442221746087C139.1611872834783 929.9286131756522 155.4904914365217 934.5593344 172.7880183095652 935.598753613913L180.2464037843478 935.8221988730434L461.887434573913 935.8221988730434C491.4071863652173 935.8221988730434 519.8277943652174 925.1615859756522 542.0021359304347 905.9723713669566L548.4619019130434 899.9618813773914L917.9318895304348 530.4918906434783C963.7534096695651 484.6703749565218 965.6626398608694 411.5652608000001 923.6595801043478 363.4701089391305L917.9318895304348 357.3429604173913L636.2908582956521 75.7019291826088C590.4693426086956 29.8804134956522 517.364228452174 27.9711833043478 469.2690765913043 69.9742386086957L463.1419280695652 75.7019291826088L93.6719386713043 445.1719168C72.7983242017391 466.0455334956522 60.2401101913044 493.6801324521739 58.1293073808696 522.928582121739L57.8116211756522 531.7463841391304L57.8116211756522 813.3874162643478C57.8116211756522 844.8831167443478 69.7041310052174 873.6011731478261 89.2436034782609 895.2960373982609L5.7205281391304 995.4978771478262L39.9230755617391 1024.0000000000014zM461.887434573913 869.0395901773913L180.2464037843478 869.0395901773913C176.6987682504348 869.0395901773913 173.2286633182609 868.7076409878262 169.8654555269565 868.0731082573914L215.90853632 812.8187022469565C226.3022155686957 817.9811804382609 238.0166299826087 820.8838135095652 250.40899072 820.8838135095652C293.2988634156522 820.8838135095652 328.067975346087 786.1147020243478 328.067975346087 743.2248293286957C328.067975346087 700.334956187826 293.2988634156522 665.5658447026087 250.40899072 665.5658447026087C207.5191180243478 665.5658447026087 172.7500065391304 700.334956187826 172.7500065391304 743.2248293286957C172.7500065391304 757.5031242573914 176.6033416904348 770.8814251408696 183.3268272973913 782.3765459478261L132.9652232904348 842.7557189008696C128.604731213913 835.7504471930436 125.7577529878261 827.7052945808696 124.8815558121739 819.0775278191304L124.5942298713043 813.3874162643478L124.5942298713043 531.7463841391304C124.5942298713043 519.0950644869565 128.9019877286957 506.8878848000001 136.7052256834783 497.0858585043478L140.894374066087 492.3943535304348L510.3643648 122.9243659130435C530.6489900521739 102.6397406608695 562.6966461217391 101.2874329043478 584.5496742956522 118.8674381913045L589.0684215652174 122.9243659130435L870.7094572521739 404.5653971478262C890.9940780521738 424.8500224000001 892.3463902608695 456.8976784695652 874.7663805217392 478.7507066434782L870.7094572521739 483.2694539130434L501.2394651826087 852.7394459826087C490.8026568347826 863.1762529947827 476.6473126956522 869.0395901773913 461.887434573913 869.0395901773913zM516.9342107826087 671.620333746087L582.1265296695652 657.1331517217392L495.4659305739131 267.1604602434784L430.2736107965217 281.6476427130434L516.9342107826087 671.620333746087zM361.8532365356522 541.5638149565218C391.7484446052174 541.5638149565218 415.9832990052174 517.3289583304347 415.9832990052174 487.4337502608696C415.9832990052174 457.5385421913044 391.7484446052174 433.3036900173913 361.8532365356522 433.3036900173913C331.9580289113043 433.3036900173913 307.7231745113043 457.5385421913044 307.7231745113043 487.4337502608696C307.7231745113043 517.3289583304347 331.9580289113043 541.5638149565218 361.8532365356522 541.5638149565218zM650.5469017043478 541.5638149565218C680.442109773913 541.5638149565218 704.676961947826 517.3289583304347 704.676961947826 487.4337502608696C704.676961947826 457.5385421913044 680.442109773913 433.3036900173913 650.5469017043478 433.3036900173913C620.6516936347825 433.3036900173913 596.4168414608696 457.5385421913044 596.4168414608696 487.4337502608696C596.4168414608696 517.3289583304347 620.6516936347825 541.5638149565218 650.5469017043478 541.5638149565218zM250.40899072 767.4577265530435C237.0255311026087 767.4577265530435 226.1760934956522 756.608288946087 226.1760934956522 743.2248293286957C226.1760934956522 729.841369266087 237.0255311026087 718.9919316591304 250.40899072 718.9919316591304C263.7924503373913 718.9919316591304 274.6418883895652 729.841369266087 274.6418883895652 743.2248293286957C274.6418883895652 756.608288946087 263.7924503373913 767.4577265530435 250.40899072 767.4577265530435z" />
    <glyph glyph-name="download-mobile"
      unicode="&#xEA30;"
      horiz-adv-x="975.2380952380952" d="M512 405.2114285714287L768 661.2114285714285L819.6876190476189 609.5238095238095L475.4285714285714 265.2647619047621L131.1695238095238 609.5238095238095L182.8571428571428 661.2114285714285L438.8571428571429 405.2114285714287V1024H512V405.2114285714287zM0 36.5714285714287V109.7142857142858H950.8571428571428V36.5714285714287H0z" />
    <glyph glyph-name="help-mobile"
      unicode="&#xEA31;"
      horiz-adv-x="981.3333333333333" d="M891.7333333333332 736H829.0133333333333C807.2533333333333 898.1333333333333 663.8933333333333 1024 490.6666666666666 1024C317.44 1024 174.08 898.1333333333333 152.32 736H85.3333333333333C38.4 736 0 697.6 0 650.6666666666667V394.6666666666668C0 347.7333333333334 38.4 309.3333333333334 85.3333333333333 309.3333333333334H256V736H217.1733333333333C238.5066666666667 862.72 352.8533333333333 960 490.6666666666666 960C628.48 960 742.8266666666666 862.72 764.16 736H721.0666666666666V309.3333333333334H800C800 222.72 738.9866666666667 150.1866666666667 657.4933333333333 132.2666666666668C645.9733333333334 172.8000000000001 609.28 202.6666666666668 565.3333333333333 202.6666666666668H458.6666666666666C405.76 202.6666666666668 362.6666666666667 159.5733333333333 362.6666666666667 106.6666666666667C362.6666666666667 53.7600000000001 405.76 10.6666666666667 458.6666666666666 10.6666666666667H565.3333333333333C603.7333333333333 10.6666666666667 637.0133333333333 33.7066666666667 652.3733333333332 66.56C771.8399999999999 83.2000000000001 864 185.6000000000001 864 309.3333333333334H891.7333333333332C938.6666666666666 309.3333333333334 977.0666666666666 347.7333333333334 977.0666666666666 394.6666666666668V650.6666666666667C977.0666666666666 697.6 938.6666666666666 736 891.7333333333332 736zM192 373.3333333333334H85.3333333333333C73.3866666666667 373.3333333333334 64 382.7200000000001 64 394.6666666666668V650.6666666666667C64 662.6133333333333 73.3866666666667 672 85.3333333333333 672H192V373.3333333333334zM565.3333333333333 74.6666666666667H458.6666666666666C441.1733333333333 74.6666666666667 426.6666666666667 89.1733333333334 426.6666666666667 106.6666666666667C426.6666666666667 124.1600000000001 441.1733333333333 138.6666666666668 458.6666666666666 138.6666666666668H565.3333333333333C582.8266666666666 138.6666666666668 597.3333333333333 124.1600000000001 597.3333333333333 106.6666666666667C597.3333333333333 89.1733333333334 582.8266666666666 74.6666666666667 565.3333333333333 74.6666666666667zM913.0666666666666 394.6666666666668C913.0666666666666 382.7200000000001 903.68 373.3333333333334 891.7333333333332 373.3333333333334H785.0666666666666V672H891.7333333333332C903.68 672 913.0666666666666 662.6133333333333 913.0666666666666 650.6666666666667V394.6666666666668z" />
    <glyph glyph-name="history-mobile"
      unicode="&#xEA32;"
      horiz-adv-x="1024" d="M512 12.8C236.288 12.8 12.8 236.288 12.8 512S236.288 1011.2 512 1011.2S1011.2 787.712 1011.2 512S787.712 12.8 512 12.8zM512 89.5999999999999A422.4000000000001 422.4000000000001 0 1 1 512 934.4A422.4000000000001 422.4000000000001 0 0 1 512 89.5999999999999zM550.4 550.4H716.8000000000001V473.6H473.6V767.8976H550.4V550.4z" />
    <glyph glyph-name="logout-mobile"
      unicode="&#xEA33;"
      horiz-adv-x="1024" d="M181.3333333333333 96H117.3333333333333V928H458.6666666666666V864H181.3333333333333V160H458.6666666666666V96H181.3333333333333zM439.8933333333333 480L663.8933333333333 256L618.6666666666666 210.7733333333334L317.44 512L618.6666666666666 813.2266666666667L663.8933333333333 768L439.8933333333333 544H939.52V480H439.8933333333333z" />
    <glyph glyph-name="my-account-mobile"
      unicode="&#xEA34;"
      horiz-adv-x="1024" d="M162.816 155.2384L143.0528 174.592L143.4112 175.3087999999999A497.4080000000001 497.4080000000001 0 0 0 12.8 512C12.8 787.712 236.288 1011.2 512 1011.2S1011.2 787.712 1011.2 512A497.4080000000001 497.4080000000001 0 0 0 880.5888 175.3087999999999L880.9472000000001 174.592L861.1840000000001 155.2384A497.5616000000001 497.5616000000001 0 0 0 512 12.8A497.5616000000001 497.5616000000001 0 0 0 162.816 155.2384zM182.784 247.296A396.5952000000001 396.5952000000001 0 0 0 512 422.4A396.5952000000001 396.5952000000001 0 0 0 841.216 247.296A422.4000000000001 422.4000000000001 0 1 1 182.8864 247.296zM512 473.6A192 192 0 1 0 512 857.6A192 192 0 0 0 512 473.6zM512 550.4A115.2 115.2 0 1 1 512 780.8A115.2 115.2 0 0 1 512 550.4zM512 89.5999999999999C614.1952 89.5999999999999 710.5024 125.952 786.2272 190.6687999999999A319.8976000000001 319.8976000000001 0 0 1 512 345.5999999999999A319.8976000000001 319.8976000000001 0 0 1 237.7728 190.6687999999999A420.6080000000001 420.6080000000001 0 0 1 512 89.5999999999999z" />
    <glyph glyph-name="navigation-mobile"
      unicode="&#xEA35;"
      horiz-adv-x="1024" d="M0 912.695652173913C0 974.1801739130436 49.8198260869565 1024 111.304347826087 1024L645.5652173913044 1024C707.0497391304348 1024 756.8695652173913 974.1801739130436 756.8695652173913 912.695652173913L756.8695652173913 845.9130434782609L1024 845.9130434782609L1024 155.8260869565218C1024 69.7655652173913 954.2344347826086 0 868.1739130434783 0L155.8260869565218 0C69.7655652173913 0 0 69.7210434782609 0 155.8260869565218L0 912.695652173913zM44.5217391304348 912.695652173913C44.5217391304348 875.7871304347826 74.3958260869565 845.9130434782609 111.304347826087 845.9130434782609L712.3478260869565 845.9130434782609L712.3478260869565 912.695652173913C712.3478260869565 949.6041739130434 682.4292173913043 979.4782608695652 645.5652173913044 979.4782608695652L111.304347826087 979.4782608695652C74.3958260869565 979.4782608695652 44.5217391304348 949.6041739130434 44.5217391304348 912.695652173913zM979.4782608695652 801.3913043478261L111.304347826087 801.3913043478261C86.2386086956522 801.3913043478261 63.1318260869565 809.6723478260869 44.5217391304348 823.6521739130435L44.5217391304348 155.8260869565218C44.5217391304348 94.3415652173914 94.3415652173913 44.5217391304348 155.8260869565218 44.5217391304348L868.1739130434783 44.5217391304348C929.6584347826087 44.5217391304348 979.4782608695652 94.3415652173914 979.4782608695652 155.8260869565218L979.4782608695652 801.3913043478261z" />
    <glyph glyph-name="notifications-mobile"
      unicode="&#xEA36;"
      horiz-adv-x="1024" d="M12.8 166.4V307.2L36.4032 317.0304A294.2976000000001 294.2976000000001 0 0 1 217.6 588.8V716.8A294.4000000000001 294.4000000000001 0 0 0 806.4000000000001 716.8V588.8A294.2976000000001 294.2976000000001 0 0 1 987.5968000000001 317.0304L1011.2 307.2V166.4H677.888A166.4 166.4 0 0 0 346.112 166.4H12.8zM729.6 588.8V716.8A217.6000000000001 217.6000000000001 0 1 1 294.4000000000001 716.8V588.8C294.4000000000001 446.4640000000001 213.504 319.1296 89.6 257.0239999999999V243.2H422.4000000000001V179.1999999999999A89.6 89.6 0 0 1 601.6 179.1999999999999V243.2H934.4V257.0239999999999C810.4960000000001 319.1296 729.6 446.464 729.6 588.8z" />
    <glyph glyph-name="points-mobile"
      unicode="&#xEA37;"
      horiz-adv-x="1024" d="M642.7721638956522 244.8695652173914C666.6803378086956 244.8695652173914 686.3589465043478 225.9478260869565 687.2493812869565 202.0396521739131L689.4754682434783 144.6956521739131L756.925903026087 144.6956521739131C781.5464247652174 144.6956521739131 801.4476421565217 124.7944347826087 801.4476421565217 100.1739130434783L801.4476421565217 44.5217391304348L222.6650321252174 44.5217391304348L222.6650321252174 100.1739130434783C222.6650321252174 124.7944347826087 242.6107712556522 144.6956521739131 267.1867712556522 144.6956521739131L338.4660756034783 144.6956521739131L338.4660756034783 200.3478260869565C338.4660756034783 224.968347826087 358.3672929947827 244.8695652173914 382.987814733913 244.8695652173914L489.6173812869565 244.8695652173914L489.6173812869565 489.7391304347826L534.4952943304348 489.7391304347826L534.4952943304348 244.8695652173914L642.7721638956522 244.8695652173914zM44.4890323033044 890.4347826086956L182.0166842991305 890.4347826086956L190.1196408208695 754.2427826086957C193.6368582121739 694.8507826086957 215.6305973426087 640.8459130434783 250.0013799513044 597.2146086956521C113.2751190817391 635.3697391304348 45.5575538643478 731.5812173913043 44.4890323033044 890.4347826086956zM244.9259016904348 979.4782608695652L779.1867725913044 979.4782608695652C791.5192943304347 979.4782608695652 801.4476421565217 969.5053913043478 801.4031204173913 955.8817391304348L789.6048595478261 756.8695652173913C782.2142508521739 631.8525217391305 678.6566856347825 534.2608695652174 553.3725117217391 534.2608695652174L470.7846856347826 534.2608695652174C345.500510386087 534.2608695652174 241.9874669078261 631.8525217391305 234.5523364730435 756.8695652173913L222.7095538643478 955.8817391304348C221.9972060382609 968.1697391304348 231.3467712556522 978.7213913043478 244.9259016904348 979.4782608695652zM979.5345986782607 890.4347826086956C978.4660769391304 731.5812173913043 910.8375551999998 635.4142608695652 774.1558160695653 597.2146086956521C808.5265986782608 640.8904347826087 830.5203378086957 694.8507826086957 834.0375552 754.2427826086957L842.140511721739 890.4347826086956L979.5345986782607 890.4347826086956zM712.4486856347826 539.3808695652174C924.5947725913041 566.8062608695652 1030.244859547826 693.7377391304348 1023.789207373913 913.3634782608696L1023.165903026087 934.9565217391304L844.7672943304348 934.9565217391304L845.8803378086956 953.2549565217392C845.9693812869566 955.2584347826086 845.9693812869566 955.2584347826086 845.9693812869566 957.2173913043478C845.9693812869566 994.1259130434782 816.0952943304346 1024 779.1867725913044 1024L244.9259016904348 1024C242.9669451686957 1024 242.9669451686957 1024 241.0079886469566 1023.910956521739C204.1439886469565 1021.6848695652174 176.0952929947826 990.0744347826088 178.2768582121739 953.2549565217392L179.3899016904348 934.9565217391304L0.9022496768 934.9565217391304L0.2789453307548 913.3634782608696C-6.1767068271304 693.7377391304348 99.4733799513044 566.7617391304348 311.7085103860869 539.3363478260869C350.3979016904348 512.7568695652174 395.8991190817391 495.4379130434783 445.0956408208695 490.9857391304348L445.0956408208695 289.3913043478261L382.987814733913 289.3913043478261C333.7912929947826 289.3913043478261 293.9443364730435 249.4998260869566 293.9443364730435 200.3478260869565L293.9443364730435 189.2173913043479L267.1867712556522 189.2173913043479C218.0347712556522 189.2173913043479 178.1432929947826 149.3259130434783 178.1432929947826 100.1739130434783L178.1432929947826 0L845.9693812869566 0L845.9693812869566 100.1739130434783C845.9693812869566 149.3259130434783 806.1224247652175 189.2173913043479 756.925903026087 189.2173913043479L732.3053812869565 189.2173913043479L731.7265986782608 203.7760000000001C729.9012073739129 251.5478260869565 690.5885117217391 289.3913043478261 642.7721638956522 289.3913043478261L579.0170334608696 289.3913043478261L579.0170334608696 490.9857391304348C628.2580769391304 495.4379130434783 673.7147725913043 512.7568695652174 712.4486856347826 539.3808695652174z" />
    <glyph glyph-name="purchases-mobile"
      unicode="&#xEA38;"
      horiz-adv-x="1024" d="M268.8 755.2V768A243.8144 243.8144 0 0 0 512 1011.2A243.8144 243.8144 0 0 0 755.2 768V755.2H877.7216000000001L991.9488000000002 12.8H32.0512L146.2272 755.2H268.8zM345.6 755.2H678.4000000000001V768A167.0144 167.0144 0 0 1 512 934.4A167.0144 167.0144 0 0 1 345.6 768V755.2zM811.8784 678.4H212.1216L121.5488 89.5999999999999H902.4512L811.8272000000002 678.4z" />
    <glyph glyph-name="stores-mobile"
      unicode="&#xEA39;"
      horiz-adv-x="1024" d="M180.4567272727273 995.8865454545456L28.5323636363636 803.5607272727273L28.2530909090909 692.7825454545455V692.736A167.0981818181818 167.0981818181818 0 0 1 95.5578181818182 557.3818181818182V120.4596363636364H400.4305454545455V389.3527272727273H532.5265454545454V120.4596363636364H666.9032727272727L716.381090909091 21.4574545454547L794.5774545454547 177.9898181818182C795.2290909090909 177.9898181818182 795.834181818182 177.5243636363637 796.5323636363638 177.5243636363637L874.5425454545456 21.4574545454544L924.1134545454548 120.7389090909089L1015.2960000000002 120.9250909090909L945.3847272727274 259.8167272727273C962.7927272727273 287.0458181818183 975.546181818182 317.5330909090909 975.546181818182 352.0698181818182C975.546181818182 435.8516363636365 915.968 506.4610909090909 837.1665454545457 523.5432727272728V554.1701818181818C878.7781818181819 585.6349090909091 904.471272727273 636.5090909090909 904.471272727273 692.7360000000001L903.7265454545458 803.0487272727273L752.546909090909 995.5141818181818L180.4567272727273 995.9330909090908zM214.2952727272727 926.0683636363636L718.6152727272728 925.7425454545454L834.048 778.7054545454546L834.653090909091 691.2930909090909C833.9083636363638 634.2749090909091 791.8312727272728 591.0807272727272 737.7454545454547 591.0807272727272C681.8909090909092 591.0807272727272 636.7418181818183 635.0661818181818 635.4385454545455 689.6174545454545L635.5316363636365 694.9236363636363V726.2952727272727H565.7134545454546V694.9236363636363L565.6203636363637 691.9912727272726H565.5272727272728L565.6203636363637 690.2690909090909C563.2930909090909 635.5781818181817 519.0283636363637 592.7098181818182 466.4785454545456 592.7098181818182C412.2065454545456 592.7098181818182 367.1040000000001 637.6261818181817 367.1040000000001 694.2719999999999V725.8298181818182H297.2858181818183V692.736H296.8203636363638C296.8203636363638 636.6952727272727 253.9985454545456 593.92 197.7250909090911 593.92C141.3585454545456 593.92 98.1178181818183 636.8814545454545 98.1178181818183 692.736L98.3505454545456 779.1709090909092L214.2487272727274 926.0683636363636zM332.4741818181818 589.7309090909091A167.8894545454546 167.8894545454546 0 0 1 466.4320000000001 522.8916363636363A167.5636363636363 167.5636363636363 0 0 1 600.0174545454546 589.5447272727273A172.6370909090909 172.6370909090909 0 0 1 737.7454545454547 521.2625454545455C745.8443636363637 521.2625454545455 753.7105454545456 522.0072727272727 761.4836363636365 523.1243636363636A176.128 176.128 0 0 1 625.0123636363638 352.0698181818182C625.0123636363638 321.117090909091 635.3920000000002 293.5156363636364 649.6349090909092 268.1949090909091L610.4436363636365 190.2778181818183H602.3447272727274V459.1709090909092H330.6589090909091V190.2778181818183H165.376V526.9876363636364A176.8727272727273 176.8727272727273 0 0 1 197.7250909090909 524.1018181818183A167.8429090909091 167.8429090909091 0 0 1 332.4741818181819 589.7309090909091zM800.2560000000001 457.6349090909091A105.0065454545455 105.0065454545455 0 0 0 905.7280000000002 352.0698181818182A104.9134545454546 104.9134545454546 0 0 0 800.2560000000002 246.6443636363636A104.9134545454546 104.9134545454546 0 0 0 694.8305454545457 352.0698181818182A105.0065454545455 105.0065454545455 0 0 0 800.2560000000002 457.6349090909091zM699.8109090909091 212.5265454545455C708.1425454545456 206.4756363636365 715.9621818181819 199.866181818182 725.2712727272728 195.3512727272729L716.381090909091 177.7105454545455L710.0043636363637 190.4640000000001H688.5934545454546L699.8109090909091 212.5265454545455zM893.533090909091 207.6392727272728L902.1905454545456 190.4174545454546H880.9192727272729L874.5425454545456 177.6174545454546L868.0727272727274 190.5570909090909C877.6610909090911 194.6065454545454 884.9221818181819 202.0072727272727 893.533090909091 207.6392727272728z" />
    <glyph glyph-name="wallet-mobile"
      unicode="&#xEA3A;"
      horiz-adv-x="1024" d="M0 912.695652173913C0 974.1801739130436 49.8198260869565 1024 111.304347826087 1024L645.5652173913044 1024C707.0497391304348 1024 756.8695652173913 974.1801739130436 756.8695652173913 912.695652173913L756.8695652173913 845.9130434782609L1024 845.9130434782609L1024 155.8260869565218C1024 69.7655652173913 954.2344347826086 0 868.1739130434783 0L155.8260869565218 0C69.7655652173913 0 0 69.7210434782609 0 155.8260869565218L0 912.695652173913zM44.5217391304348 912.695652173913C44.5217391304348 875.7871304347826 74.3958260869565 845.9130434782609 111.304347826087 845.9130434782609L712.3478260869565 845.9130434782609L712.3478260869565 912.695652173913C712.3478260869565 949.6041739130434 682.4292173913043 979.4782608695652 645.5652173913044 979.4782608695652L111.304347826087 979.4782608695652C74.3958260869565 979.4782608695652 44.5217391304348 949.6041739130434 44.5217391304348 912.695652173913zM979.4782608695652 801.3913043478261L111.304347826087 801.3913043478261C86.2386086956522 801.3913043478261 63.1318260869565 809.6723478260869 44.5217391304348 823.6521739130435L44.5217391304348 155.8260869565218C44.5217391304348 94.3415652173914 94.3415652173913 44.5217391304348 155.8260869565218 44.5217391304348L868.1739130434783 44.5217391304348C929.6584347826087 44.5217391304348 979.4782608695652 94.3415652173914 979.4782608695652 155.8260869565218L979.4782608695652 801.3913043478261z" />
    <glyph glyph-name="contact-ms"
      unicode="&#xEA3B;"
      horiz-adv-x="1024" d="M203.4346666666667 842.6666666666667C143.7866666666667 842.6666666666667 96 792.1493333333333 96 732.1600000000001V281.1733333333334C96 221.2266666666667 143.7866666666667 170.6666666666668 203.4346666666667 170.6666666666668H895.232V184.4906666666668C937.1306666666666 199.8506666666667 970.6666666666666 233.8133333333334 970.6666666666666 281.1733333333335V732.1600000000001C970.6666666666666 792.1066666666667 922.8799999999998 842.6666666666667 863.232 842.6666666666667H203.4346666666667zM215.168 778.6666666666667H852.1813333333332L533.6746666666666 506.4960000000001L215.168 778.6666666666667zM161.4933333333334 740.3520000000001L509.0133333333333 443.3920000000001A32 32 0 0 1 530.1759999999999 432.2986666666667A32 32 0 0 1 533.3333333333333 432.1706666666667A32 32 0 0 1 535.5946666666666 432.2560000000001A32 32 0 0 1 538.1546666666667 432.5120000000001A32 32 0 0 1 558.2506666666667 443.3493333333334L905.2586666666666 739.84C905.6853333333333 737.2373333333334 906.6666666666666 734.9333333333334 906.6666666666666 732.1600000000001V281.1733333333334C906.6666666666666 254.4213333333335 886.9119999999999 234.752 863.232 234.752H831.232V234.6666666666668H203.4346666666667C179.7546666666667 234.6666666666668 160 254.4213333333335 160 281.1733333333334V732.1600000000001C160 735.1466666666668 161.024 737.5786666666667 161.4933333333334 740.3520000000001z" />
    <glyph glyph-name="cart-ms"
      unicode="&#xEA3C;"
      horiz-adv-x="1024" d="M88.832 856.6613333333333V792.6613333333333H220.3306666666667L367.6586666666666 414.848H865.0666666666666L984.2346666666664 777.8133333333333L341.3333333333333 778.6666666666667V714.6666666666667L896 713.984L818.7733333333333 478.848H411.392L264.064 856.6613333333333zM450.5173333333333 362.6666666666668C410.4959999999999 362.6666666666668 376.4479999999999 346.4960000000001 354.6026666666667 321.9200000000001C332.7146666666667 297.3013333333336 322.5173333333334 265.7706666666668 322.5173333333334 234.6666666666668C322.5173333333334 203.52 332.7573333333334 172.0320000000001 354.6026666666667 147.4133333333333C376.448 122.8373333333333 410.496 106.6666666666667 450.5173333333333 106.6666666666667C490.496 106.6666666666667 524.544 122.8373333333334 546.432 147.4133333333333C568.2773333333334 172.0319999999999 578.5173333333335 203.5626666666666 578.5173333333335 234.6666666666668C578.5173333333335 265.8133333333334 568.2773333333334 297.3013333333334 546.432 321.9200000000001C524.5440000000001 346.4960000000001 490.5386666666667 362.6666666666668 450.5173333333333 362.6666666666668zM791.8506666666665 362.6666666666668C751.8293333333332 362.6666666666668 717.7813333333331 346.4960000000001 695.9359999999998 321.9200000000001C674.0479999999998 297.3013333333336 663.8506666666665 265.7706666666668 663.8506666666665 234.6666666666668C663.8506666666665 203.52 674.0906666666665 172.0320000000001 695.9359999999998 147.4133333333333C717.7813333333331 122.8373333333333 751.8293333333331 106.6666666666667 791.8506666666665 106.6666666666667C831.8293333333332 106.6666666666667 865.8773333333331 122.8373333333334 887.7653333333333 147.4133333333333C909.6106666666666 172.0319999999999 919.8506666666664 203.5626666666666 919.8506666666664 234.6666666666668C919.8506666666664 265.8133333333334 909.6106666666666 297.3013333333334 887.7653333333333 321.9200000000001C865.8773333333331 346.4960000000001 831.872 362.6666666666668 791.8506666666665 362.6666666666668zM450.5173333333332 298.6666666666668C474.4959999999999 298.6666666666668 488.4479999999999 290.8160000000001 498.6026666666666 279.424C508.7146666666666 268.0320000000001 514.5173333333332 251.5626666666667 514.5173333333332 234.6666666666668C514.5173333333332 217.7706666666667 508.7146666666666 201.3013333333333 498.6026666666666 189.9093333333334C488.4479999999999 178.5173333333335 474.4959999999999 170.6666666666668 450.5173333333332 170.6666666666668C426.4959999999999 170.6666666666668 412.5439999999999 178.5173333333335 402.4319999999999 189.9093333333334C392.2773333333332 201.3013333333333 386.5173333333333 217.7706666666667 386.5173333333333 234.6666666666668C386.5173333333333 251.5626666666667 392.2773333333332 268.0320000000001 402.4319999999999 279.424C412.5439999999999 290.8160000000001 426.4959999999999 298.6666666666668 450.5173333333332 298.6666666666668zM791.8506666666665 298.6666666666668C815.8293333333332 298.6666666666668 829.7813333333331 290.8160000000001 839.9359999999998 279.424C850.0479999999998 268.0320000000001 855.8506666666665 251.5626666666667 855.8506666666665 234.6666666666668C855.8506666666665 217.7706666666667 850.0479999999999 201.3013333333333 839.9359999999998 189.9093333333334C829.7813333333331 178.5173333333335 815.8293333333331 170.6666666666668 791.8506666666665 170.6666666666668C767.8293333333332 170.6666666666668 753.8773333333331 178.5173333333335 743.7653333333333 189.9093333333334C733.6106666666666 201.3013333333333 727.8506666666665 217.7706666666667 727.8506666666665 234.6666666666668C727.8506666666665 251.5626666666667 733.6106666666666 268.0320000000001 743.7653333333333 279.424C753.8773333333331 290.8160000000001 767.8293333333332 298.6666666666668 791.8506666666665 298.6666666666668z" />
    <glyph glyph-name="close-ms"
      unicode="&#xEA3D;"
      horiz-adv-x="1024" d="M128 986.496L37.504 896L82.752 850.752L421.504 512L82.752 173.2480000000001L37.504 128L128 37.504L173.248 82.7520000000001L512 421.504L850.752 82.752L896 37.5039999999999L986.496 128L941.248 173.2480000000001L602.496 512L941.248 850.752L986.496 896L896 986.496L850.752 941.248L512 602.496L173.248 941.248z" />
    <glyph glyph-name="search-ms"
      unicode="&#xEA3E;"
      horiz-adv-x="1024" d="M661.6746666666666 407.5946666666668L616.4479999999999 362.3680000000001L639.0613333333332 339.6693333333333L829.9946666666665 148.7359999999999L852.6506666666664 126.1226666666665L897.877333333333 171.3493333333331L875.2639999999997 193.9626666666666L684.3306666666664 384.8959999999999zM470.7413333333333 853.3333333333334C305.408 853.3333333333334 170.6666666666667 718.592 170.6666666666667 553.2586666666667C170.6666666666667 387.8826666666668 305.408 253.1840000000001 470.7413333333334 253.1840000000001C636.1173333333334 253.1840000000001 770.816 387.8826666666668 770.816 553.2586666666668C770.8159999999999 718.592 636.16 853.3333333333334 470.7413333333333 853.3333333333334zM470.7413333333333 789.3333333333334A235.6053333333333 235.6053333333333 0 0 0 706.8159999999999 553.2586666666666A235.6053333333333 235.6053333333333 0 0 0 470.7413333333332 317.184A235.6053333333333 235.6053333333333 0 0 0 234.6666666666667 553.2586666666667A235.6053333333333 235.6053333333333 0 0 0 470.7413333333333 789.3333333333334z" />
    <glyph glyph-name="search-spinner-ms"
      unicode="&#xEA3F;"
      horiz-adv-x="1024" d="M512 1024.1024L509.44 1023.8976L462.336 1021.5936L459.7248 1021.3888L457.1648 1020.9792L411.392 1014.1184L408.8832 1013.7088L406.4255999999999 1012.992L362.1887999999999 1001.728L359.7824 1001.0112L357.376 1000.192L314.9824 984.6784L312.6784 983.808L310.3743999999999 982.6816L270.08 963.2768L267.8784 962.2016L265.8304 960.9216L227.7887999999999 937.8816L225.7407999999999 936.6016L223.6927999999999 935.0656L188.2111999999999 908.5952L186.3167999999999 907.0592L184.5247999999999 905.5232L151.7055999999999 875.7248000000001L149.9135999999999 874.0864L148.2751999999999 872.2944L118.4767999999999 839.5264L116.9407999999999 837.6832L115.4047999999999 835.7888L88.8831999999999 800.3072000000001L87.3983999999999 798.2592000000001L86.1183999999999 796.2112000000001L63.0783999999999 758.2208L61.7983999999999 756.1216L60.7231999999999 753.9200000000001L41.2671999999999 713.6256000000001L40.2431999999999 711.3216L39.3215999999999 709.0176L23.8079999999999 666.624L22.9887999999999 664.2176L22.3231999999999 661.8112000000001L11.0079999999999 617.5744L10.2911999999999 615.1168L9.8815999999999 612.5568000000001L3.0207999999999 566.784L2.6111999999999 564.2752L2.4063999999999 561.7152L0.1023999999999 514.6112L18.5343999999999 472.6272L63.1807999999999 462.1823999999999L98.3039999999999 491.776L102.2975999999999 509.3887999999998L104.6016 553.6768L110.8991999999999 595.3023999999999L120.7808 633.5999999999999L134.7071999999999 671.4879999999999L151.7055999999999 706.9184L172.4927999999999 741.2223999999999L196.0959999999999 772.7103999999999L222.4128 801.5871999999999L251.2896 827.904L282.7776 851.456L317.0816 872.2944L352.512 889.2927999999999L390.4 903.2192L428.6976 913.1008L470.3232 919.3984L512 921.6L553.7792000000001 919.3984L594.4832 913.2544L634.0096000000001 903.2192L671.0784000000001 889.5999999999999L707.2768000000001 872.0896L741.6832000000002 851.1999999999999L772.8128000000002 828.0064L801.6896000000002 801.6895999999999L828.0064000000002 772.8127999999999L851.2000000000003 741.6831999999999L872.0896000000002 707.2768L889.6000000000003 671.0784L903.2192000000005 634.0096L913.3056000000003 594.4832L919.3984000000002 553.7792L921.4976000000001 512.5120000000001L918.4768000000003 461.7216L909.5168000000002 413.2864000000001L894.9248000000002 366.592L875.1104000000001 322.4064L849.6128000000001 280.1152L819.2 241.1008L784.5888 206.2847999999999L744.6528000000001 174.8992L719.0016 158.5151999999999L691.5072 143.8208L662.9888000000001 131.1232L634.8288 121.0879999999999L603.8016 112.6911999999998L574.208 107.0591999999998L542.208 103.4751999999999L510.1056 102.3999999999998L469.9136 80.2815999999998L463.5136 34.9183999999999L495.9744 2.6111999999998L513.8944 0L548.9151999999999 1.2799999999999L550.9119999999999 1.3823999999998L552.8063999999999 1.5871999999999L587.52 5.4784L589.5168 5.7855999999999L591.4112 6.0927999999999L625.6128 12.6976L627.5072 13.0048L629.4016000000001 13.5168000000001L662.8864000000001 22.5792000000001L664.7808000000001 23.1936000000001L666.6240000000001 23.8080000000001L699.3920000000002 35.3792000000001L701.1840000000002 36.096L702.9760000000001 36.9151999999999L734.8224000000001 50.8928L736.6144000000002 51.7119999999999L738.3040000000001 52.7359999999999L769.0752000000001 69.2223999999998L770.8160000000001 70.0927999999998L772.5056000000001 71.1167999999998L801.9968000000001 90.0095999999998L804.0960000000001 91.3919999999998L806.1440000000001 92.9279999999999L850.2784 127.7439999999998L852.8384000000001 129.5872L854.9888000000001 131.7887999999998L894.2080000000002 171.3151999999998L896.4096000000002 173.5167999999998L898.3040000000001 175.9231999999997L932.3008000000002 219.4943999999997L934.0928000000002 221.9007999999998L935.6800000000002 224.6143999999998L964.0960000000002 271.7183999999998L965.6832 274.3807999999998L967.0144 277.1967999999997L989.5936 327.3727999999998L990.8224 330.1887999999998L991.6928 333.1071999999998L1008.1792 385.8943999999998L1009.1008 388.8127999999998L1009.7152 391.8847999999998L1019.8016 446.6175999999999L1020.3136 449.5872L1020.5184000000002 452.8127999999999L1023.8976000000002 508.8768L1024.1024000000002 511.6927999999999L1023.8976000000002 514.6112L1021.5936 561.7152L1021.4912 564.2752L1021.0816 566.8352L1014.1184000000002 612.6080000000001L1013.7088000000002 615.1168L1013.0944000000002 617.5744000000001L1001.6768000000002 661.8112000000001L1001.1136000000002 664.3200000000002L1000.1920000000002 666.624L984.8320000000002 709.0176000000001L983.9104000000002 711.4240000000001L982.7840000000002 713.6256000000001L963.3792000000002 753.9200000000001L962.304 756.2240000000002L961.0240000000002 758.2720000000002L937.9840000000002 796.3136000000002L936.7040000000002 798.3616000000002L935.1680000000002 800.4096000000002L908.6976000000004 835.8912000000001L907.1616000000002 837.7856000000002L905.6256000000002 839.5776000000001L875.7760000000003 872.3968000000001L874.2400000000002 874.1888000000001L872.3968000000001 875.7760000000002L839.6288000000001 905.6256000000002L837.7856 907.1616000000002L835.8912 908.6976000000002L800.4096000000001 935.2192000000002L798.3616000000002 936.7040000000002L796.3136000000002 937.9840000000002L758.3232000000003 961.0240000000002L756.2240000000002 962.304L753.9200000000002 963.3792L713.6256000000002 982.8352L711.4240000000002 983.8592000000002L709.0176000000001 984.7808000000002L666.6240000000003 1000.1920000000002L664.3200000000002 1001.1136000000002L661.7600000000002 1001.6768000000002L617.5744000000002 1013.0944000000002L615.1168 1013.76L612.5568 1014.1696L566.784 1021.1328L564.2751999999999 1021.5424L561.7152 1021.6448L514.6111999999999 1023.9488L512 1024.1024z" />
    <glyph glyph-name="twitter-ms"
      unicode="&#xEA40;"
      horiz-adv-x="1024" d="M977.92 768C945.0666666666668 753.0666666666667 909.6533333333334 743.2533333333333 872.96 738.5600000000001C910.5066666666665 761.1733333333334 939.52 797.0133333333333 953.1733333333332 840.1066666666667C917.76 818.7733333333333 878.5066666666667 803.84 837.12 795.3066666666667C803.4133333333332 832 756.0533333333333 853.3333333333334 702.2933333333333 853.3333333333334C602.0266666666666 853.3333333333334 520.1066666666667 771.4133333333334 520.1066666666667 670.2933333333334C520.1066666666667 655.7866666666667 521.8133333333333 641.7066666666667 524.8 628.48C372.9066666666667 636.1600000000001 237.6533333333334 709.12 147.6266666666667 819.6266666666668C131.84 792.7466666666667 122.88 761.1733333333334 122.88 727.8933333333334C122.88 664.32 154.88 608 204.3733333333334 576C174.0800000000001 576 145.92 584.5333333333333 121.1733333333334 597.3333333333334V596.0533333333334C121.1733333333334 507.3066666666667 184.32 433.0666666666667 267.9466666666667 416.4266666666668A180.0533333333333 180.0533333333333 0 0 0 185.6000000000001 413.4400000000001A182.6133333333334 182.6133333333334 0 0 1 356.2666666666667 286.2933333333334A363.5626666666667 363.5626666666667 0 0 0 128.8533333333334 207.7866666666668C114.3466666666667 207.7866666666668 99.8400000000001 208.6400000000001 85.3333333333334 210.3466666666667C166.4 158.2933333333334 262.8266666666667 128 366.08 128C702.2933333333333 128 887.04 407.04 887.04 648.96C887.04 657.0666666666667 887.04 664.7466666666667 886.6133333333332 672.8533333333335C922.4533333333331 698.4533333333334 953.1733333333332 730.8800000000001 977.9199999999998 768.0000000000001z" />
    <glyph glyph-name="facebook-ms"
      unicode="&#xEA41;"
      horiz-adv-x="1024" d="M725.3333333333333 938.6666666666666V768H640C610.56 768 597.3333333333333 733.44 597.3333333333333 704V597.3333333333334H725.3333333333333V426.6666666666668H597.3333333333333V85.3333333333334H426.6666666666667V426.6666666666668H298.6666666666667V597.3333333333334H426.6666666666667V768A170.6666666666667 170.6666666666667 0 0 0 597.3333333333333 938.6666666666666H725.3333333333333z" />
    </font>
</defs>
</svg>
